<?xml version="1.0" standalone="no"?><!DOCTYPE svg PUBLIC "-//W3C//DTD SVG 1.1//EN" "http://www.w3.org/Graphics/SVG/1.1/DTD/svg11.dtd"><svg t="1775990491972" class="icon" viewBox="0 0 1024 1024" version="1.1" xmlns="http://www.w3.org/2000/svg" p-id="8240" xmlns:xlink="http://www.w3.org/1999/xlink" width="200" height="200"><path d="M455.264865 889.219459a27.675676 27.675676 0 0 1-10.129297-37.804973l41.513513-71.956756a27.675676 27.675676 0 0 1 47.961946 27.675675l-41.513513 71.956757a27.675676 27.675676 0 0 1-37.804973 10.101622z m-123.544216-7.389405a27.675676 27.675676 0 0 1-10.129298-37.721946l69.18919-119.863351a27.675676 27.675676 0 0 1 47.93427 27.675675l-69.189189 119.835676a27.675676 27.675676 0 0 1-37.804973 10.129297z m292.310486-23.16454a21.753081 21.753081 0 0 1-2.518486-1.300757 26.624 26.624 0 0 1-13.644108-25.79373 299.340108 299.340108 0 0 0-13.837838-116.763676 26.707027 26.707027 0 0 0-4.843244 1.881946 27.481946 27.481946 0 0 1-4.92627 1.881946c-36.947027-18.072216-75.139459-38.745946-120.223135-64.650378a2036.92973 2036.92973 0 0 1-116.569946-73.202162 30.055784 30.055784 0 0 1-0.802594-5.230703 29.834378 29.834378 0 0 0-0.802595-5.175351 338.528865 338.528865 0 0 0-108.101189 46.439783 27.426595 27.426595 0 0 1-29.640649 0.691892 26.845405 26.845405 0 0 1-13.588757-29.253189A308.279351 308.279351 0 0 1 226.940541 509.924324a304.653838 304.653838 0 0 1 128.332108-123.32281 25.101838 25.101838 0 0 0 11.568432-13.450379A408.465297 408.465297 0 0 1 758.313514 110.702703a24.492973 24.492973 0 0 1 14.695783 3.182702 24.133189 24.133189 0 0 1 10.101622 11.070271 435.144649 435.144649 0 0 1 57.648432 257.66054 400.854486 400.854486 0 0 1-87.095351 213.711568 19.539027 19.539027 0 0 0-5.867243 16.605405 327.375568 327.375568 0 0 1-42.205406 174.356757 307.974919 307.974919 0 0 1-51.504432 67.224216 22.33427 22.33427 0 0 1-16.854487 6.97427 31.328865 31.328865 0 0 1-13.201297-2.850594z m-59.779459-545.681298a83.027027 83.027027 0 1 0 71.956756-41.513513 83.027027 83.027027 0 0 0-71.956756 41.513513zM263.527784 778.516757a27.675676 27.675676 0 0 1-10.129298-37.804973l41.513514-71.956757a27.675676 27.675676 0 0 1 47.93427 27.675676l-41.513513 71.956756a27.675676 27.675676 0 0 1-37.804973 10.129298z" fill="#c2714f" p-id="8241"></path></svg>