<svg width="54" height="83" xmlns="http://www.w3.org/2000/svg" xmlns:xlink="http://www.w3.org/1999/xlink" xml:space="preserve" overflow="hidden"><defs><clipPath id="clip0"><rect x="516" y="177" width="54" height="83"/></clipPath><clipPath id="clip1"><rect x="516" y="177" width="54" height="83"/></clipPath><clipPath id="clip2"><rect x="517" y="178" width="53" height="82"/></clipPath><clipPath id="clip3"><rect x="517" y="178" width="53" height="82"/></clipPath><clipPath id="clip4"><rect x="517" y="178" width="53" height="82"/></clipPath></defs><g clip-path="url(#clip0)" transform="translate(-516 -177)"><g clip-path="url(#clip1)"><g clip-path="url(#clip2)"><g clip-path="url(#clip3)"><g clip-path="url(#clip4)"><path d="M41.0191 81.8379 31.4299 65.894C31.4299 65.894 31.1436 65.5218 31.1436 64.9207L31.1436 64.5486 31.1436 63.7471 31.1436 35.3801 27.5083 35.3801 27.5083 64.978 27.5083 65.894C27.7945 66.2088 33.8343 76.4565 33.8343 76.4565L18.9209 76.4565C18.9209 76.4565 24.9321 66.2088 25.2469 65.894L25.2469 64.978 25.2469 35.3801 21.6116 35.3801 21.6116 63.7757 21.6116 64.5772 21.6116 64.9493C21.6116 65.5505 21.3254 65.9226 21.3254 65.9226L11.7361 81.8665 41.0191 81.8379Z" fill="#996600" fill-rule="nonzero" fill-opacity="1" transform="matrix(1.00464 0 0 1 517 178.067)"/><path d="M38.0422 14.6558C38.0422 14.6558 39.8455 7.21341 33.4336 2.3186 33.4336 2.3186 30.8574 5.08477e-16 25.9912 5.08477e-16 21.6116 0 19.064 2.3186 19.064 2.3186 13.1101 6.46917 14.6558 14.6558 14.6558 14.6558L38.0422 14.6558Z" fill="#996600" fill-rule="nonzero" fill-opacity="1" transform="matrix(1.00464 0 0 1 517 178.067)"/><path d="M15.3714 16.7454 37.3552 16.7454C37.5269 16.3161 37.6701 15.9153 37.8132 15.4573L14.9134 15.4573C15.0566 15.8867 15.1997 16.3161 15.3714 16.7454Z" fill="#996600" fill-rule="nonzero" fill-opacity="1" transform="matrix(1.00464 0 0 1 517 178.067)"/><path d="M37.0117 17.4897 15.7436 17.4897C15.9439 17.9477 16.2302 18.3484 16.4878 18.7778L36.3247 18.7778C36.5537 18.377 36.8113 17.9477 37.0117 17.4897Z" fill="#996600" fill-rule="nonzero" fill-opacity="1" transform="matrix(1.00464 0 0 1 517 178.067)"/><path d="M17.8904 20.6098 34.8362 20.6098C35.1511 20.2949 35.4373 19.9514 35.7236 19.5793L17.003 19.5793C17.2893 19.9228 17.5755 20.2663 17.8904 20.6098Z" fill="#996600" fill-rule="nonzero" fill-opacity="1" transform="matrix(1.00464 0 0 1 517 178.067)"/><path d="M19.7224 22.1269 33.0042 22.1269C33.3477 21.8979 33.6912 21.6402 34.0061 21.354L18.7205 21.354C19.0354 21.6116 19.3789 21.8979 19.7224 22.1269Z" fill="#996600" fill-rule="nonzero" fill-opacity="1" transform="matrix(1.00464 0 0 1 517 178.067)"/><path d="M21.5544 23.1573C23.0142 23.8157 24.6458 24.1878 26.3633 24.1878 28.0808 24.1878 29.6838 23.8157 31.1723 23.1573L21.5544 23.1573Z" fill="#996600" fill-rule="nonzero" fill-opacity="1" transform="matrix(1.00464 0 0 1 517 178.067)"/><path d="M49.1772 24.7317 31.2009 24.7317C31.2009 24.7317 29.512 24.7317 28.1953 25.6477 27.1648 26.3633 26.4492 27.9949 26.3919 28.0522 26.3633 27.9663 25.6191 26.3347 24.5886 25.6477 23.2432 24.7317 21.583 24.7317 21.583 24.7317L3.57808 24.7317 0 30.5139 16.4592 30.5139C16.4592 30.5139 16.9458 30.5139 17.2607 30.5711 17.7473 30.657 18.606 30.9146 19.4934 31.5444 20.6956 32.4317 21.0677 32.8897 21.354 33.176 21.5257 33.3477 21.8692 33.863 21.8692 33.863L25.9053 33.863 26.3633 33.863 27.7659 33.863 30.8574 33.863C30.8574 33.863 31.2581 33.3477 31.3726 33.176 31.6589 32.8611 32.0024 32.4031 33.2332 31.5444 34.1206 30.9146 34.9793 30.657 35.466 30.5711 35.7522 30.5139 36.2674 30.5139 36.2674 30.5139L52.7552 30.5139 49.1772 24.7317Z" fill="#003366" fill-rule="nonzero" fill-opacity="1" transform="matrix(1.00464 0 0 1 517 178.067)"/><path d="M1.80335 32.2886 1.80335 59.253C1.80335 59.253 1.80335 59.5393 1.80335 59.6252 1.80335 59.9114 1.83198 60.1977 1.8606 60.4267 2.14685 63.3177 3.06284 65.4646 4.75169 68.2698 7.41379 72.678 12.1655 75.7408 12.1655 75.7408L14.4268 72.1341C14.4268 72.1341 11.364 70.5025 8.90227 66.7527 8.41565 65.9798 7.90041 65.3215 7.58553 64.6059 7.27066 63.9475 7.04167 63.4036 6.84129 62.8597 6.69817 62.4304 6.58367 62.0583 6.4978 61.7434 6.35467 61.2568 6.32605 60.856 6.29742 60.3694 6.29742 60.1977 6.2688 59.5393 6.2688 59.5393L6.2688 59.3962 6.2688 32.2886 1.80335 32.2886Z" fill="#003366" fill-rule="nonzero" fill-opacity="1" transform="matrix(1.00464 0 0 1 517 178.067)"/><path d="M8.64465 32.2886 8.64465 59.5393C8.64465 59.5393 8.64465 59.6538 8.67327 59.7683 8.67327 59.9114 8.7019 60.1118 8.73052 60.2549 8.73052 60.3694 8.75914 60.4553 8.78777 60.5411 8.87364 60.9705 8.95952 61.3426 9.15989 61.9151 9.47476 62.8311 9.99001 63.9475 10.7915 65.2356 12.8238 68.4988 15.7149 69.9873 15.7149 69.9873L17.9763 66.4665C17.9763 66.4665 17.232 66.0371 16.3161 65.1783 15.7149 64.6059 14.9993 63.833 14.3696 62.917 13.7685 62.001 13.3963 61.0564 13.196 60.3408 13.0242 59.7683 12.9956 59.2817 12.9956 58.9668 12.9956 58.7378 12.9956 58.566 12.9956 58.566L12.9956 32.2886 8.64465 32.2886Z" fill="#003366" fill-rule="nonzero" fill-opacity="1" transform="matrix(1.00464 0 0 1 517 178.067)"/><path d="M50.9805 32.2886 50.9805 59.253C50.9805 59.253 50.9805 59.5393 50.9805 59.6252 50.9805 59.9114 50.9519 60.1977 50.9233 60.4267 50.637 63.3177 49.721 65.4646 48.0322 68.2698 45.3701 72.678 40.6184 75.7408 40.6184 75.7408L38.357 72.1341C38.357 72.1341 41.4199 70.5025 43.8816 66.7527 44.3682 65.9798 44.8835 65.3215 45.1983 64.6059 45.5132 63.9475 45.7422 63.4036 45.9426 62.8597 46.0857 62.4304 46.2002 62.0583 46.2861 61.7434 46.4292 61.2568 46.4578 60.856 46.4864 60.3694 46.4864 60.1977 46.5151 59.5393 46.5151 59.5393L46.5151 59.3962 46.5151 32.2886 50.9805 32.2886Z" fill="#003366" fill-rule="nonzero" fill-opacity="1" transform="matrix(1.00464 0 0 1 517 178.067)"/><path d="M44.1106 32.2886 44.1106 59.5393C44.1106 59.5393 44.1106 59.6538 44.082 59.7683 44.082 59.9114 44.0533 60.1118 44.0247 60.2549 44.0247 60.3694 43.9961 60.4553 43.9675 60.5411 43.8816 60.9705 43.7957 61.3426 43.5954 61.9151 43.2805 62.8311 42.7652 63.9475 41.9637 65.2356 39.9314 68.4988 37.0403 69.9873 37.0403 69.9873L34.779 66.4665C34.779 66.4665 35.5232 66.0371 36.4392 65.1783 37.0403 64.6059 37.7559 63.833 38.3857 62.917 38.9868 62.001 39.3589 61.0564 39.5593 60.3408 39.731 59.7683 39.7596 59.2817 39.7596 58.9668 39.7596 58.7378 39.7596 58.566 39.7596 58.566L39.7596 32.2886 44.1106 32.2886Z" fill="#003366" fill-rule="nonzero" fill-opacity="1" transform="matrix(1.00464 0 0 1 517 178.067)"/></g></g></g></g></g></svg>