<svg width="78" height="77" xmlns="http://www.w3.org/2000/svg" xmlns:xlink="http://www.w3.org/1999/xlink" xml:space="preserve" overflow="hidden"><g transform="translate(-504 -276)"><g><g><g><g><path d="M0 0C0-21.2475-17.2245-38.4715-38.4715-38.4715-59.7189-38.4715-76.9434-21.2475-76.9434 0-76.9434 21.2475-59.7189 38.4715-38.4715 38.4715-17.2245 38.4715 0 21.2475 0 0" fill="#FFFFFF" fill-rule="nonzero" fill-opacity="1" transform="matrix(1 0 0 -1 581.944 314.5)"/><path d="M0 0 0 2.5121 2.49852 2.5121C3.70568 5.83097 6.55352 8.28277 10.0153 8.98196L10.0153 10.1728 9.55348 10.1728 9.55348 10.363C10.2136 10.8188 10.9785 11.098 11.7766 11.1746L11.7766 12.8441 12.2671 12.8441 12.2671 11.1746C13.0652 11.098 13.8307 10.8188 14.4902 10.363L14.4902 10.1728 14.0284 10.1728 14.0284 8.98196C17.4907 8.28277 20.3386 5.83097 21.5452 2.5121L24.0442 2.5121 24.0442 0 26.3086 0 19.3134-12.1161 4.73084-12.1161-2.26437 0Z" fill="#FBC707" fill-rule="nonzero" fill-opacity="1" transform="matrix(1 0 0 -1 531.492 317.504)"/><path d="M0 0 0-0.303691C-3.3406-1.11208-6.08359-3.48619-7.363-6.6763L-10.0153-6.6763-10.0153-9.1884-12.0716-9.1884-19.2031 3.16349 1.7613 3.16349 1.7613 1.92211C0.95236 1.77271 0.190689 1.4337-0.461783 0.932259L-0.461783 0Z" fill="#527158" fill-rule="nonzero" fill-opacity="1" transform="matrix(1 0 0 -1 541.015 307.824)"/><path d="M0 0 0 2.5121-2.65227 2.5121C-3.93168 5.70221-6.67467 8.07632-10.0153 8.88471L-10.0153 9.1884-9.55348 9.1884-9.55348 10.1207C-10.206 10.6221-10.9676 10.9611-11.7766 11.1105L-11.7766 12.3513 9.18786 12.3513 2.05629 0Z" fill="#527158" fill-rule="nonzero" fill-opacity="1" transform="matrix(1 0 0 -1 556.028 317.012)"/><path d="M0 0-6.62089 11.4674 6.62089 11.4674Z" fill="#527158" fill-rule="nonzero" fill-opacity="1" transform="matrix(1 0 0 -1 543.514 342.25)"/><path d="M0 0-2.16386-3.74751-4.32338-0.00706257C-17.7836 1.03439-28.4899 11.7065-29.5742 25.1634-30.7923 40.2784-19.5264 53.5191-4.41085 54.7371 10.7041 55.9551 23.9448 44.6892 25.1629 29.5742 26.3814 14.4587 15.1155 1.21802 0 0M-2.16386 62.8786C-21.7755 62.8786-37.6734 46.9802-37.6734 27.3685-37.6734 7.75688-21.7755-8.14151-2.16386-8.14151 17.4478-8.14151 33.3462 7.75688 33.3462 27.3685 33.3462 46.9802 17.4478 62.8786-2.16386 62.8786" fill="#FBC707" fill-rule="nonzero" fill-opacity="1" transform="matrix(1 0 0 -1 545.677 341.869)"/><path d="M0 0C-20.4575 0-37.0415 16.584-37.0415 37.0415-37.0415 57.4991-20.4575 74.0831 0 74.0831 20.4575 74.0831 37.0415 57.4991 37.0415 37.0415 37.0415 16.584 20.4575 0 0 0M0 75.5277C-21.2556 75.5277-38.4861 58.2966-38.4861 37.0415-38.4861 15.7865-21.2556-1.44457 0-1.44457 21.2551-1.44457 38.4861 15.7865 38.4861 37.0415 38.4861 58.2966 21.2551 75.5277 0 75.5277" fill="#231F20" fill-rule="nonzero" fill-opacity="1" transform="matrix(1 0 0 -1 543.514 351.542)"/><path d="M0 0C-19.6117 0-35.5101 15.8984-35.5101 35.5101-35.5101 55.1217-19.6117 71.0201 0 71.0201 19.6117 71.0201 35.5101 55.1217 35.5101 35.5101 35.5101 15.8984 19.6117 0 0 0M0 71.7432C-20.011 71.7432-36.2332 55.521-36.2332 35.5101-36.2332 15.4991-20.011-0.723099 0-0.723099 20.011-0.723099 36.2332 15.4991 36.2332 35.5101 36.2332 55.521 20.011 71.7432 0 71.7432" fill="#231F20" fill-rule="nonzero" fill-opacity="1" transform="matrix(1 0 0 -1 543.514 350.01)"/><path d="M0 0 21.6854 37.5604C22.8838 34.9114 23.6417 32.0836 23.928 29.1901 25.3812 14.5217 14.6684 1.45326 0 0M-2.63108-1.19031-9.25197 10.2771 3.98981 10.2771ZM-13.6324 2.24264C-27.0616 8.31862-33.0235 24.1306-26.9475 37.5604L-5.26216 0C-8.15564 0.286849-10.9828 1.04417-13.6324 2.24264M9.88325 24.0475 9.88325 26.5591 7.23099 26.5591C5.95157 29.7492 3.20858 32.1233-0.132016 32.9317L-0.132016 33.2354 0.329768 33.2354 0.329768 34.1676C-0.322705 34.6691-1.08438 35.0086-1.89331 35.1575L-1.89331 36.3989 19.0711 36.3989 11.9401 24.0475ZM-14.6532 23.5548-14.6532 26.0669-12.1541 26.0669C-10.9475 29.3863-8.09968 31.8375-4.63739 32.5367L-4.63739 33.7281-5.09918 33.7281-5.09918 33.9177C-4.43964 34.3735-3.67417 34.6533-2.8761 34.7299L-2.8761 36.3989-2.38606 36.3989-2.38606 34.7299C-1.58745 34.6533-0.821975 34.3735-0.162439 33.9177L-0.162439 33.7281-0.624223 33.7281-0.624223 32.5367C2.83752 31.8375 5.68537 29.3863 6.89253 26.0669L9.39104 26.0669 9.39104 23.5548 11.6554 23.5548 4.66021 11.4392-9.92237 11.4392-16.9176 23.5548ZM-5.13014 33.2354-5.13014 32.9317C-8.47074 32.1233-11.2137 29.7492-12.4931 26.5591L-15.1454 26.5591-15.1454 24.0475-17.2017 24.0475-24.3333 36.3989-3.3683 36.3989-3.3683 35.1575C-4.17778 35.0086-4.93945 34.6691-5.59193 34.1676L-5.59193 33.2354ZM-14.1539 50.6327C-0.858374 56.9966 15.0786 51.3775 21.4425 38.0825L-26.7047 38.0825C-24.0752 43.575-19.647 48.0037-14.1539 50.6327M24.6956 28.7648C23.4776 43.8797 10.2369 55.1456-4.87806 53.9276-19.9936 52.7096-31.2595 39.4689-30.0415 24.3539-28.9571 10.897-18.2508 0.224916-4.7906-0.815998L-2.63108-4.55699-0.467216-0.809479C14.6478 0.408543 25.9137 13.6498 24.6956 28.7648" fill="#231F20" fill-rule="nonzero" fill-opacity="1" transform="matrix(1 0 0 -1 546.145 341.059)"/><path d="M274.068 228.501 289.417 228.501 289.417 227.299 274.068 227.299Z" fill="#231F20" fill-rule="nonzero" fill-opacity="1" transform="matrix(1 0 0 -1 261.771 551.462)"/><path d="M0 0C0 0.511221 0.414519 0.92574 0.92574 0.92574 1.4375 0.92574 1.85148 0.511221 1.85148 0 1.85148-0.511221 1.4375-0.92574 0.92574-0.92574 0.414519-0.92574 0-0.511221 0 0" fill="#231F20" fill-rule="nonzero" fill-opacity="1" transform="matrix(1 0 0 -1 520.294 336.752)"/><path d="M0 0C0 0.511221 0.414519 0.92574 0.92574 0.92574 1.4375 0.92574 1.85148 0.511221 1.85148 0 1.85148-0.511221 1.4375-0.92574 0.92574-0.92574 0.414519-0.92574 0-0.511221 0 0" fill="#231F20" fill-rule="nonzero" fill-opacity="1" transform="matrix(1 0 0 -1 564.882 336.752)"/><path d="M0 0C-0.077145 0.0483514-0.131472 0.108112-0.159179 0.172761-0.193949 0.254796-0.209704 0.359648-0.209704 0.499269-0.209704 0.751892-0.224916 0.956163-0.25045 1.10448-0.283046 1.26311-0.334114 1.42284-0.391158 1.58202-0.604121 2.08835-0.937149 2.44419-1.37231 2.64249-1.81617 2.84622-2.2459 2.85817-2.66585 2.68323-2.99507 2.53927-3.24172 2.31544-3.41502 2.00849-3.57964 1.69502-3.68449 1.18597-3.72632 0.472649-3.75294-0.0315099-3.78554-0.355845-3.81922-0.510135-3.8616-0.712233-3.92896-0.875759-4.01915-0.994736-4.07999-1.08383-4.1642-1.15446-4.27829-1.20064-4.45322-1.27018-4.64174-1.2642-4.83786-1.17293-5.03181-1.08275-5.18067-0.914331-5.29149-0.657906-5.42351-0.330854-5.42351 0.0228175-5.29367 0.413432-5.16057 0.80459-4.8911 1.12947-4.51081 1.37394L-4.57492 1.53149-6.23245 0.790465-6.1841 0.680723C-6.02274 0.71332-5.91191 0.715493-5.86139 0.691589-5.8038 0.675834-5.76197 0.634002-5.73861 0.567722-5.70873 0.499269-5.69786 0.362907-5.70873 0.163526-5.71579-0.0374859-5.70873-0.204815-5.69189-0.330854-5.66418-0.510135-5.61366-0.667684-5.54194-0.833383-5.35288-1.28593-5.05571-1.59505-4.64934-1.77216-4.24135-1.9509-3.85019-1.96068-3.44001-1.78629-3.20695-1.69013-3.01789-1.54236-2.87012-1.36145-2.72072-1.16532-2.60772-0.940952-2.53927-0.667684-2.46158-0.406913-2.40942 -1.20631e-16-2.37791 0.551967-2.3589 0.944211-2.32739 1.22671-2.27849 1.39404-2.23014 1.56626-2.16386 1.70806-2.08237 1.81888-1.99816 1.92482-1.8982 2.00849-1.78303 2.05303-1.58039 2.13507-1.37231 2.12801-1.1512 2.02587-0.933346 1.927-0.763844 1.73468-0.641064 1.45815-0.488404 1.09578-0.488404 0.701368-0.638891 0.271637-0.786662-0.159723-1.0985-0.542731-1.58528-0.875759L-1.52986-1.00723 0.359648-0.208074 0.30695-0.0782315C0.183084-0.0782315 0.0793181-0.0505245 0 0" fill="#231F20" fill-rule="nonzero" fill-opacity="1" transform="matrix(1 0 0 -1 517.608 327.096)"/><path d="M0 0C-0.387355-0.404196-1.02353-0.682353-1.93569-0.840446-2.70062-0.974635-3.30583-0.981697-3.75892-0.856201-4.29404-0.684526-4.61512-0.360734-4.69824 0.129843-4.74768 0.396047-4.71997 0.644867-4.61512 0.870869-4.49994 1.10285-4.28807 1.30875-3.95395 1.50704-3.63125 1.69936-3.11568 1.86235-2.41323 1.98458-1.81399 2.09432-1.3245 2.11714-0.937149 2.05086-0.545991 1.98458-0.242844 1.85637-0.0325965 1.65644 0.129843 1.49889 0.239041 1.2843 0.285219 1.01429 0.355845 0.616073 0.262402 0.274354 0 0M0.583477 1.08492C0.407999 2.03619-0.0662795 2.71637-0.845879 3.12111-1.4337 3.42589-2.06173 3.51444-2.74028 3.39547-3.5302 3.25367-4.15007 2.86632-4.58143 2.24807-5.01008 1.6157-5.13612 0.879018-4.95249 0.0309667-4.83949-0.756782-4.46735-1.37503-3.85019-1.82106-3.22379-2.25894-2.51427-2.4154-1.71675-2.2736-1.01321-2.14865-0.437879-1.82975 0.0021731-1.3207 0.560116-0.682353 0.757868 0.121694 0.583477 1.08492" fill="#231F20" fill-rule="nonzero" fill-opacity="1" transform="matrix(1 0 0 -1 514.861 320.621)"/><path d="M0 0 2.66422-0.171132C3.11459-0.204271 3.4775-0.153747 3.74914-0.0239041 4.0349 0.0999625 4.26579 0.334114 4.45811 0.667684 4.59719 0.917591 4.68629 1.27996 4.71562 1.74663 4.74822 2.31055 4.65749 2.75603 4.44344 3.0983 4.2245 3.43513 3.97297 3.66004 3.69318 3.76 3.42209 3.85725 2.9603 3.9344 2.33011 3.97188L0.261315 4.10444C0.0483514 4.11748-0.109198 4.14247-0.189603 4.18865-0.312926 4.23374-0.396591 4.31686-0.454721 4.419-0.505245 4.52656-0.534039 4.65532-0.525347 4.80689L-0.511221 4.91392-0.660079 4.92804-0.781772 3.05266-0.634002 3.04179C-0.624223 3.25584-0.575871 3.421-0.505245 3.52803-0.460697 3.60734-0.390614 3.66167-0.282503 3.71057-0.173305 3.75077 0 3.76489 0.239584 3.75077L2.45614 3.60734C3.02876 3.56877 3.43513 3.49434 3.6595 3.37754 3.89256 3.26454 4.06098 3.0983 4.17778 2.88587 4.29785 2.66802 4.34457 2.41757 4.32881 2.12909 4.31632 1.87267 4.24949 1.66459 4.12834 1.50704 4.01208 1.34352 3.87355 1.23541 3.716 1.1713 3.55302 1.11263 3.22977 1.09687 2.74517 1.12567L0.0820345 1.29299C-0.222199 1.31961-0.412345 1.34352-0.492207 1.3772-0.567722 1.42555-0.624223 1.47825-0.660079 1.56517-0.699738 1.6396-0.715493 1.78737-0.699738 1.99545L-0.692675 2.13724-0.83447 2.14485-1.01375-0.650843-0.873042-0.658992C-0.854028-0.4281-0.826321-0.271637-0.781772-0.190146-0.723099-0.104852-0.660079-0.0505245-0.58565-0.0168415-0.503616 0.00977894-0.30695 0.015755 0 0" fill="#231F20" fill-rule="nonzero" fill-opacity="1" transform="matrix(1 0 0 -1 510.345 314.418)"/><path d="M0 0C-0.369427 0.183084-0.621506 0.406913-0.762758 0.693762-0.863807 0.899663-0.856201 1.17782-0.751349 1.53366L-0.636175 1.92428 3.38514 0.718209C3.64809 0.636175 3.8051 0.570438 3.86377 0.522087 3.9382 0.468846 3.9784 0.391158 3.99959 0.314013 4.02404 0.206988 4.01317 0.0820345 3.97297-0.0733421L3.92027-0.242844 4.05989-0.285219 4.87263 2.42409 4.73138 2.46375 4.68792 2.29371C4.63957 2.153 4.57926 2.03674 4.49994 1.96883 4.4266 1.902 4.35543 1.86343 4.27611 1.85583 4.1968 1.84768 4.02404 1.88516 3.75674 1.95362L-0.262402 3.17218-0.139622 3.55954C-0.0722555 3.80618 0.00380292 3.96699 0.083121 4.05337 0.220569 4.20169 0.369427 4.30599 0.543818 4.3625 0.714949 4.41791 0.973548 4.43638 1.32559 4.42443L1.36525 4.56351-0.0488947 4.98618-1.45652 0.290109-0.0488947-0.132016Z" fill="#231F20" fill-rule="nonzero" fill-opacity="1" transform="matrix(1 0 0 -1 511.621 307.332)"/><path d="M0 0C0.0733421 0.137448 0.155377 0.221656 0.24882 0.270551 0.33683 0.321075 0.425927 0.33683 0.496553 0.327051 0.575871 0.321075 0.737224 0.24393 0.970832 0.104852L4.06098-1.69936C4.30002-1.8379 4.44562-1.93895 4.48202-1.99327 4.53852-2.07857 4.57329-2.15191 4.57166-2.23395 4.57166-2.34097 4.532-2.4719 4.45648-2.59577L4.36141-2.75712 4.49017-2.83481 5.91354-0.388441 5.78479-0.315099 5.70004-0.4645C5.61855-0.602492 5.53814-0.686699 5.45285-0.737224 5.35614-0.789378 5.27791-0.810566 5.1986-0.80133 5.1171-0.792638 4.96662-0.71332 4.7178-0.580761L3.26725 0.270551 4.24623 1.94112 5.70004 1.09253C5.93256 0.952904 6.07327 0.856201 6.11401 0.7997 6.17214 0.714406 6.20202 0.634002 6.19605 0.557943 6.20202 0.452005 6.16236 0.327051 6.08522 0.18906L5.99721 0.0385725 6.12216-0.0347696 7.54554 2.40562 7.4157 2.4757 7.32932 2.32847C7.25706 2.19755 7.16797 2.1003 7.07996 2.05195 6.98869 1.99925 6.90556 1.97969 6.83711 1.9873 6.75725 1.99925 6.59644 2.08074 6.35088 2.22199L3.26345 4.01643C3.02387 4.1604 2.89185 4.26634 2.8435 4.31686 2.78972 4.40487 2.75712 4.47821 2.76527 4.55644 2.75712 4.66836 2.79895 4.78625 2.88044 4.92587L2.96465 5.07582 2.8435 5.1497 1.41414 2.71474 1.54181 2.6376 1.62982 2.79189C1.71077 2.91847 1.79335 3.00866 1.88245 3.06461 1.97372 3.11514 2.06064 3.13469 2.13127 3.12166 2.20624 3.11514 2.36976 3.03745 2.60989 2.8962L3.93928 2.12529 2.96465 0.452005 1.6358 1.2278C1.39404 1.36742 1.25442 1.4663 1.21585 1.5228 1.15935 1.6032 1.12947 1.68035 1.12947 1.76075 1.12947 1.87267 1.16315 1.99327 1.24464 2.13127L1.33374 2.28882 1.20987 2.3589-0.21568-0.0852941-0.0852941-0.155377Z" fill="#231F20" fill-rule="nonzero" fill-opacity="1" transform="matrix(1 0 0 -1 512.76 299.872)"/><path d="M0 0C0.116804 0.12767 0.24556 0.199382 0.364537 0.21894 0.455807 0.236868 0.542731 0.223829 0.626939 0.175478 0.675834 0.149401 0.791551 0.0467216 0.970832-0.123867L3.55791-2.59685C3.75674-2.78917 3.86486-2.9125 3.89528-2.98095 3.93602-3.0695 3.94472-3.15534 3.92353-3.23357 3.89745-3.3406 3.83932-3.45197 3.72415-3.5628L3.60028-3.69535 3.6997-3.7926 6.94685-0.407999 5.86737 0.965942 5.76632 0.857831C6.02274 0.425927 6.12379 0.021731 6.07544-0.359648 6.0423-0.7432 5.84238-1.1186 5.49468-1.47988L5.27248-1.72109C5.15948-1.82812 5.0693-1.8944 4.99052-1.91613 4.9112-1.94112 4.84275-1.93297 4.77104-1.902 4.71182-1.88027 4.56622-1.75967 4.35109-1.54942L3.24172-0.492207C3.41883-0.300974 3.58235-0.185257 3.72415-0.129843 3.86486-0.0842076 4.04685-0.0880105 4.25927-0.147771 4.47115-0.208074 4.70313-0.337917 4.95249-0.523173L5.05245-0.424298 2.98421 1.54453 2.89076 1.44348C3.16457 1.12241 3.32973 0.826321 3.37645 0.561746 3.42915 0.299344 3.33571 0.0467216 3.09775-0.208074L3.02278-0.278157 1.42555 1.2441 1.8053 1.64449C2.09269 1.94112 2.30511 2.12801 2.44474 2.20515 2.68269 2.33825 2.90978 2.39367 3.13143 2.37954 3.35255 2.36107 3.6269 2.2497 3.96373 2.03619L4.06315 2.13887 2.90761 3.24987-0.233065-0.0325965-0.12604-0.129843Z" fill="#231F20" fill-rule="nonzero" fill-opacity="1" transform="matrix(1 0 0 -1 517.332 292.799)"/><path d="M0 0-0.322705 1.98947 1.35927 0.890427ZM4.44181 0.849138C4.29404 0.773623 4.1604 0.7432 4.03707 0.766561 3.87409 0.787748 3.59865 0.933346 3.20532 1.18706L-0.86598 3.85127-0.939322 3.80618-0.174391-0.883908C-0.0972462-1.33374-0.077145-1.65264-0.109741-1.8341-0.131472-2.01609-0.224916-2.17147-0.3716-2.30457L-0.291195-2.42844 1.21748-1.43262 1.13816-1.30984C0.890427-1.45163 0.725272-1.52171 0.642151-1.52171 0.495466-1.52986 0.380292-1.47336 0.296085-1.33972 0.231978-1.24247 0.181454-1.09578 0.148857-0.905639L0.0526976-0.327051 1.63363 0.70843 2.25785 0.292282C2.41757 0.190146 2.50667 0.12278 2.5284 0.109198 2.5648 0.0733421 2.60174 0.0374859 2.62565-0.00380292 2.6778-0.0706257 2.68106-0.139622 2.65933-0.210247 2.61261-0.303147 2.51047-0.418865 2.33934-0.534039L2.24209-0.59054 2.32522-0.71332 4.52004 0.733964Z" fill="#231F20" fill-rule="nonzero" fill-opacity="1" transform="matrix(1 0 0 -1 525.679 289.74)"/><path d="M0 0C0.190146-0.157006 0.418321-0.270007 0.674747-0.356931 0.946928-0.43625 1.34135-0.502529 1.8944-0.551424 2.29262-0.592713 2.56208-0.628569 2.7343-0.683983 2.90706-0.732877 3.04179-0.800787 3.14773-0.89097 3.25367-0.973548 3.33679-1.07949 3.37754-1.19738 3.4536-1.40165 3.43513-1.61624 3.33679-1.82866 3.22108-2.04326 3.02387-2.20407 2.74354-2.31707 2.37574-2.4556 1.98567-2.44745 1.55648-2.2823 1.12947-2.1204 0.758955-1.79552 0.437879-1.29462L0.30695-1.35112 1.04417-3.26997 1.17891-3.21238C1.18271-3.09069 1.2115-2.99073 1.26909-2.9163 1.31961-2.84078 1.3772-2.78374 1.45272-2.75495 1.52497-2.72996 1.63363-2.7142 1.77162-2.71909 2.02044-2.72018 2.22634-2.71909 2.3828-2.6941 2.54035-2.67237 2.70062-2.62673 2.86034-2.57023 3.37048-2.36759 3.73501-2.0601 3.95395-1.61842 4.17126-1.18543 4.1968-0.756238 4.03707-0.337374 3.9056-0.0021731 3.68666 0.254796 3.3846 0.43462 3.07656 0.612271 2.56208 0.733421 1.8618 0.792094 1.35927 0.840446 1.03059 0.883365 0.880648 0.919221 0.67692 0.971375 0.513395 1.04472 0.396047 1.13707 0.318902 1.19955 0.24882 1.29082 0.205901 1.40219 0.139622 1.58147 0.153747 1.76564 0.24882 1.96339 0.344979 2.15137 0.529149 2.29099 0.777969 2.39584 1.11045 2.52514 1.47445 2.51265 1.85474 2.36487 2.23992 2.21765 2.54633 1.94492 2.78483 1.54779L2.94238 1.61244 2.26002 3.28627 2.15082 3.24607C2.16875 3.08471 2.16875 2.97497 2.15082 2.92336 2.12638 2.86795 2.08454 2.82394 2.01827 2.79949 1.95199 2.77776 1.81291 2.77124 1.6157 2.78537 1.41197 2.79406 1.24464 2.79406 1.1148 2.78374 0.946928 2.75984 0.777969 2.72072 0.610097 2.65227 0.15755 2.47842-0.171132 2.19211-0.359648 1.79389-0.549794 1.3935-0.567722 0.987673-0.410172 0.583477-0.318902 0.351499-0.180367 0.15429 0 0" fill="#231F20" fill-rule="nonzero" fill-opacity="1" transform="matrix(1 0 0 -1 530.441 285.33)"/><path d="M0 0C0 0.39822 0.0972462 0.727445 0.296085 0.975721 0.436793 1.16152 0.684526 1.27833 1.04798 1.33537L1.44728 1.40382 2.12529-2.73919C2.16767-3.01354 2.18342-3.18087 2.1568-3.25096 2.1367-3.3444 2.09269-3.41774 2.03619-3.46827 1.94492-3.54052 1.82812-3.58887 1.66622-3.61386L1.50052-3.64157 1.51682-3.78608 4.3098-3.33462 4.28589-3.18957 4.11259-3.21347C3.96102-3.24552 3.84095-3.2352 3.74099-3.2026 3.64592-3.16077 3.57964-3.11242 3.53563-3.04125 3.49434-2.97932 3.44979-2.8071 3.40525-2.52894L2.73539 1.61407 3.14067 1.67274C3.39547 1.71457 3.56877 1.72327 3.67743 1.69067 3.87355 1.632 4.03707 1.53529 4.16094 1.40762 4.28589 1.27833 4.41954 1.05395 4.56133 0.733421L4.70476 0.751349 4.4592 2.21004-0.377576 1.42555-0.141795-0.0325965Z" fill="#231F20" fill-rule="nonzero" fill-opacity="1" transform="matrix(1 0 0 -1 535.945 282.72)"/><path d="M0 0C0.0298801-0.0766017 0.0135819-0.2787-0.0423754-0.579674L-0.488404-3.20695C-0.567722-3.65787-0.553597-4.01915-0.454721-4.30817-0.361821-4.59882-0.151574-4.85362 0.163526-5.08342 0.395504-5.24695 0.741027-5.37081 1.20281-5.45502 1.75478-5.54629 2.21547-5.50337 2.57892-5.32246 2.93857-5.14318 3.18033-4.92207 3.31778-4.65804 3.44382-4.38912 3.56497-3.9382 3.67362-3.30637L4.01534-1.27126C4.05337-1.05613 4.09575-0.907269 4.1441-0.826321 4.21092-0.714949 4.30165-0.634002 4.40867-0.58728 4.5157-0.549251 4.64771-0.536755 4.79603-0.567722L4.90414-0.579674 4.93402-0.438423 3.07819-0.125496 3.05429-0.266748C3.26128-0.303147 3.421-0.363994 3.52803-0.438423 3.59865-0.495466 3.64918-0.578044 3.68177-0.687242 3.71328-0.797527 3.70622-0.973548 3.66656-1.21205L3.29333-3.40307C3.195-3.96916 3.07819-4.36521 2.93857-4.57546 2.80112-4.78245 2.61967-4.9438 2.39747-5.03887 2.16495-5.13232 1.91233-5.15894 1.62385-5.10733 1.37503-5.06386 1.17619-4.97966 1.02842-4.84655 0.881735-4.71399 0.782859-4.5684 0.741027-4.39944 0.698651-4.2332 0.714406-3.90614 0.791551-3.421L1.24464-0.802417C1.29299-0.495466 1.34352-0.310753 1.39296-0.231978 1.43479-0.165699 1.49889-0.115174 1.58691-0.0847508 1.67057-0.0592169 1.81291-0.0592169 2.01827-0.089097L2.15897-0.115174 2.18559 0.0239041-0.578588 0.49438-0.604121 0.355845C-0.3716 0.316729-0.222743 0.268921-0.141795 0.211877-0.0662795 0.153203-0.0179281 0.0809479 0 0" fill="#231F20" fill-rule="nonzero" fill-opacity="1" transform="matrix(1 0 0 -1 547.07 280.979)"/><path d="M0 0 1.78629-0.745916 1.84061-0.610097 1.72164-0.559573C1.55159-0.48949 1.41903-0.374316 1.32559-0.222199 1.23269-0.0603035 1.24627 0.155377 1.36634 0.438966L2.70985 3.65732 4.36304-1.9509 4.49505-2.0036 6.23462 2.17527C6.33187 2.41377 6.42857 2.57078 6.50626 2.65172 6.58666 2.7343 6.67196 2.78483 6.76649 2.80058 6.85287 2.8109 7.00824 2.78483 7.2375 2.72507L7.28803 2.85762 5.62941 3.55084 5.57563 3.4172C5.85215 3.30474 6.02492 3.15643 6.08413 2.95704 6.12651 2.81742 6.08413 2.59577 5.95429 2.29045L5.06549 0.155377 3.87681 4.28209 2.08672 5.02529 2.03619 4.89436C2.18559 4.82754 2.29262 4.75474 2.35401 4.67162 2.41812 4.59828 2.46864 4.47224 2.52514 4.28209L2.57512 4.09575 1.0985 0.553597C0.992563 0.284133 0.855114 0.124953 0.703541 0.0624766 0.549794-0.00597602 0.335744 0.0190146 0.0532409 0.131472Z" fill="#231F20" fill-rule="nonzero" fill-opacity="1" transform="matrix(1 0 0 -1 551.82 286.994)"/><path d="M0 0C0.0418321-0.0901836 0.0641064-0.179824 0.0505245-0.253709 0.033683-0.327051-0.0467216-0.482428-0.198295-0.722012L-2.14322-3.72415C-2.29642-3.95124-2.40671-4.08597-2.45995-4.11965-2.53927-4.18484-2.6213-4.20984-2.70062-4.19897-2.80982-4.19897-2.93042-4.15007-3.06244-4.06804L-3.21293-3.96916-3.29224-4.09357-0.923567-5.62615-0.839903-5.50337-0.991476-5.4045C-1.12078-5.32844-1.21096-5.23717-1.25062-5.1459-1.29897-5.04974-1.31092-4.9677-1.30114-4.89925-1.29299-4.81885-1.21096-4.6613-1.05613-4.4228L0.890427-1.42555C1.04037-1.19575 1.14522-1.05993 1.2039-1.02244 1.2881-0.963226 1.36905-0.945298 1.44946-0.946928 1.55865-0.952904 1.68198-0.995822 1.81399-1.07786L1.96068-1.17999 2.04217-1.05993-0.328681 0.479168-0.412889 0.362364-0.262402 0.258599C-0.137448 0.177651-0.0467216 0.0929 0 0" fill="#231F20" fill-rule="nonzero" fill-opacity="1" transform="matrix(1 0 0 -1 561.093 285.62)"/><path d="M0 0 0.0999625-0.104852 4.30382 1.64938C4.80526 1.8618 5.14101 1.97969 5.3192 1.99653 5.55227 2.02804 5.75111 1.97969 5.9168 1.87049L6.02057 1.9748 4.72269 3.18902 4.62272 3.08417C4.76452 2.95324 4.85579 2.83535 4.90903 2.72072 4.94978 2.6414 4.96173 2.56317 4.94978 2.48874 4.93565 2.41866 4.90414 2.34912 4.85253 2.29045 4.802 2.23992 4.7379 2.18559 4.64771 2.13724 4.55536 2.08237 4.3663 1.99653 4.06913 1.87049L1.64178 0.850225 2.65118 3.60952C2.76038 3.9056 2.82448 4.08706 2.85165 4.14627 2.88207 4.21255 2.91576 4.25927 2.95052 4.29187 2.99888 4.35217 3.06353 4.36847 3.13578 4.36141 3.23792 4.35054 3.37645 4.25927 3.55193 4.09792L3.61604 4.03816 3.71328 4.14247 1.81291 5.91952 1.71512 5.81684C1.85365 5.65495 1.91993 5.51424 1.91396 5.39743 1.90418 5.27574 1.81128 4.95249 1.61298 4.41682Z" fill="#231F20" fill-rule="nonzero" fill-opacity="1" transform="matrix(1 0 0 -1 562.856 293.637)"/><path d="M0 0-2.94672-2.0199C-3.17924-2.17962-3.32701-2.25894-3.39547-2.27686-3.49217-2.29262-3.58181-2.28882-3.64972-2.2497-3.74914-2.20841-3.84421-2.11497-3.93005-1.9873L-4.03653-1.8379-4.15116-1.91885-1.50487-5.78696 0.0586737-5.01334-0.027707-4.89436C-0.500356-5.053-0.919221-5.07582-1.28321-4.95086-1.64775-4.83786-1.97535-4.56242-2.26383-4.14627L-2.44528-3.87952C-2.53546-3.74697-2.58381-3.64374-2.58381-3.56442-2.5849-3.48619-2.56697-3.41285-2.52025-3.35472-2.48874-3.30202-2.33934-3.18142-2.09269-3.01572L-0.822518-2.14322C-0.67855-2.3589-0.591626-2.54687-0.573698-2.69682-0.551967-2.84567-0.591626-3.02387-0.699738-3.21619-0.805676-3.41285-0.977894-3.60952-1.21585-3.81542L-1.13218-3.93222 1.22182-2.31924 1.13925-2.20624C0.767647-2.40942 0.446028-2.50667 0.175478-2.49852-0.089097-2.49689-0.318902-2.34912-0.515024-2.06662L-0.573698-1.97154 1.24627-0.727445 1.55974-1.18597C1.79118-1.52769 1.93677-1.77705 1.97969-1.92319 2.05684-2.17962 2.06988-2.4154 2.01229-2.62565 1.94655-2.84241 1.77542-3.09015 1.50215-3.37754L1.57713-3.49434 2.90598-2.58762 0.34172 1.1512 0.217853 1.07188 0.322705 0.925197C0.4281 0.783945 0.463957 0.648127 0.463957 0.517197 0.458524 0.434076 0.4281 0.346609 0.37323 0.270551 0.330854 0.229805 0.208074 0.136905 0 0" fill="#231F20" fill-rule="nonzero" fill-opacity="1" transform="matrix(1 0 0 -1 569.784 294.327)"/><path d="M0 0C-0.102136-0.25045-0.352585-0.456894-0.730161-0.613357-0.990933-0.71332-1.2278-0.750806-1.43153-0.719296-1.62982-0.686699-1.80096-0.593256-1.93297-0.447658-2.0639-0.300431-2.19972-0.0543275-2.33934 0.293368L-2.42952 0.509048-0.24393 1.39024-0.0825777 0.987673C0.0852941 0.581847 0.107025 0.254796 0 0M0.636175-0.346609C0.606295-0.0298801 0.470476 0.435706 0.224916 1.04417L-0.723099 3.38949-0.854028 3.33679C-0.762758 3.10318-0.714406 2.93857-0.730161 2.84024-0.730161 2.73267-0.76982 2.6539-0.821431 2.58707-0.877932 2.52623-1.04417 2.43822-1.31364 2.32847L-4.61077 1.00343C-4.87752 0.89749-5.06386 0.846965-5.13992 0.849138-5.22522 0.856201-5.30562 0.89749-5.38494 0.962139-5.45502 1.02842-5.54303 1.18108-5.64028 1.4136L-5.77392 1.3571-4.72812-1.23758-4.59502-1.18814C-4.68629-0.951274-4.73355-0.781772-4.72595-0.684526-4.71508-0.579674-4.67922-0.496553-4.62707-0.438966-4.57057-0.37323-4.40704-0.291195-4.1316-0.180367L-2.70768 0.394417-2.57295 0.0603035-4.21961-2.49852-3.58235-4.07021-3.45088-4.01426C-3.49923-3.87572-3.50141-3.74805-3.46555-3.61332-3.44001-3.52585-3.34277-3.35689-3.18522-3.10807L-1.96068-1.22182C-1.75967-1.49292-1.55268-1.68795-1.33048-1.79118-0.980067-1.96339-0.61553-1.96883-0.24393-1.81617 0.0565006-1.69828 0.291195-1.49401 0.446028-1.23052 0.602492-0.956707 0.662795-0.661709 0.636175-0.346609" fill="#231F20" fill-rule="nonzero" fill-opacity="1" transform="matrix(1 0 0 -1 574.728 302.574)"/><path d="M0 0C-0.183084-0.150487-0.340633-0.348782-0.468846-0.595429-0.601405-0.839903-0.741027-1.22726-0.890427-1.75641-0.997452-2.13724-1.0947-2.40073-1.18217-2.56208-1.25822-2.71474-1.34678-2.83535-1.45869-2.92662-1.56735-3.01083-1.68252-3.0695-1.80802-3.09232-2.02207-3.13198-2.21928-3.07711-2.41757-2.92879-2.61152-2.78483-2.72778-2.56208-2.77885-2.25676-2.86034-1.8743-2.76744-1.4902-2.53057-1.10448-2.29479-0.718209-1.90526-0.411259-1.35927-0.193406L-1.37937-0.0516111-3.3971-0.416148-3.37265-0.554683C-3.25584-0.58728-3.16566-0.636175-3.09232-0.700281-3.03202-0.766561-2.99127-0.8361-2.97497-0.900749-2.96628-0.98387-2.97117-1.09687-2.99507-1.22943-3.0494-1.47445-3.08254-1.67546-3.08634-1.83953-3.09232-1.99327-3.08634-2.15463-3.05266-2.32413-2.95052-2.86903-2.71257-3.28735-2.32739-3.57855-1.93895-3.87192-1.5266-3.98057-1.08872-3.89148-0.733421-3.83498-0.437879-3.66656-0.205901-3.40307 0.0325965-3.13361 0.244474-2.65498 0.436793-1.97861 0.577501-1.4902 0.67692-1.17673 0.747003-1.03928 0.832297-0.846965 0.932259-0.702454 1.04417-0.601405 1.12621-0.529149 1.22345-0.484601 1.34949-0.46287 1.53366-0.42973 1.70969-0.477538 1.88625-0.603578 2.05086-0.7432 2.16278-0.940408 2.21439-1.21368 2.2736-1.56735 2.19755-1.90635 1.98132-2.25676 1.75967-2.61043 1.44022-2.86197 1.00343-3.0255L1.03439-3.19608 2.80873-2.82774 2.78917-2.71474C2.62728-2.70551 2.52025-2.68812 2.4757-2.65498 2.42138-2.62728 2.38661-2.57295 2.37791-2.50667 2.3627-2.43333 2.38443-2.29859 2.43713-2.10247 2.48874-1.90635 2.52025-1.7488 2.5284-1.61787 2.53927-1.44565 2.5284-1.268 2.49472-1.09687 2.41105-0.613357 2.1894-0.241757 1.83572 0.0146684 1.47227 0.28033 1.08492 0.375403 0.653559 0.295541 0.410172 0.251536 0.190146 0.156463 0 0" fill="#231F20" fill-rule="nonzero" fill-opacity="1" transform="matrix(1 0 0 -1 574.55 307.115)"/><path d="M0 0C0.0021731-0.148857-0.0146684-0.270551-0.0662795-0.363451-0.116804-0.452005-0.180367-0.515024-0.246647-0.544904-0.315099-0.577501-0.49438-0.593256-0.770907-0.599232L-4.35054-0.683439C-4.62272-0.686699-4.79711-0.674747-4.86176-0.645954-4.95466-0.611184-5.01931-0.563919-5.05897-0.49438-5.11819-0.400393-5.15079-0.274354-5.15079-0.116804L-5.15568 0.0586737-5.30562 0.0586737-5.23499-2.76907-5.0932-2.76907-5.0932-2.58653C-5.0932-2.43115-5.07744-2.31652-5.02692-2.22308-4.9764-2.12909-4.91609-2.06988-4.84547-2.04271-4.77919-2.00903-4.59882-1.9873-4.31958-1.97861L-0.7432-1.902C-0.470476-1.89603-0.299344-1.902-0.235781-1.93677-0.140708-1.97154-0.0760584-2.02044-0.0385725-2.08672 0.0249906-2.18233 0.0565006-2.3062 0.0565006-2.4719L0.0565006-2.64629 0.208074-2.64629 0.141795 0.181997-0.0021731 0.181997Z" fill="#231F20" fill-rule="nonzero" fill-opacity="1" transform="matrix(1 0 0 -1 577.326 312.463)"/><path d="M0 0C0.383552-0.116804 0.670944-0.312926 0.851855-0.574785 0.977894-0.764931 1.01755-1.03602 0.967029-1.40762L0.894773-1.81236-3.24389-1.18706C-3.52205-1.1474-3.68775-1.10448-3.74697-1.07188-3.82737-1.01973-3.89093-0.955077-3.91049-0.881735-3.95504-0.781772-3.96916-0.649756-3.942-0.498183L-3.91647-0.319989-4.0588-0.296085-4.47821-3.09232-4.33642-3.11568-4.31088-2.93857C-4.28589-2.7908-4.23917-2.67019-4.17778-2.59251-4.1077-2.51265-4.0474-2.46375-3.96916-2.44637-3.89963-2.42355-3.72034-2.43713-3.44001-2.47788L0.706257-3.0983 0.650843-3.50032C0.608468-3.75403 0.559573-3.92733 0.498183-4.01263 0.383552-4.18267 0.244474-4.3136 0.0852941-4.39129-0.0782315-4.47332-0.330854-4.53254-0.67855-4.57003L-0.703541-4.71019 0.748089-4.91935 1.47825-0.0744286 0.0228175 0.143968Z" fill="#231F20" fill-rule="nonzero" fill-opacity="1" transform="matrix(1 0 0 -1 576.019 317.054)"/><path d="M0 0C-0.114631-0.0586737-0.434076-0.133646-0.952904-0.210791L-3.59159-0.55577-4.60371-0.167329C-4.86448-0.0700824-5.01497 0-5.06549 0.0543275-5.13992 0.12278-5.17849 0.202098-5.18773 0.276527-5.21218 0.385182-5.18936 0.516111-5.13775 0.659535L-5.0329 0.920307-5.16383 0.975178-6.25852-1.85854-6.12488-1.91287-6.01188-1.62385C-5.96027-1.49509-5.89507-1.39622-5.81684-1.33157-5.73752-1.268-5.65603-1.23867-5.58269-1.23649-5.50772-1.23052-5.33496-1.28702-5.07256-1.38481L-3.8529-1.85365-2.42898-3.66602C-2.06553-4.12074-1.85365-4.42986-1.79933-4.59121-1.75967-4.71291-1.75967-4.85579-1.79933-5.03127L-1.6684-5.08451-1.06808-3.53889-1.2077-3.48619C-1.30658-3.71057-1.40382-3.8491-1.50378-3.91049-1.56952-3.95884-1.6358-3.96482-1.70425-3.94037-1.83301-3.89365-2.04-3.68558-2.32793-3.31398L-3.49923-1.8053-1.47825-1.53584C-1.03439-1.47499-0.762758-1.4625-0.671487-1.50107-0.623136-1.52171-0.588366-1.57006-0.565549-1.64069-0.547078-1.71675-0.565549-1.82377-0.623136-1.97046L-0.663882-2.08454-0.530779-2.13507 0.406369 0.292282 0.273267 0.345523C0.203185 0.186343 0.115174 0.0646497 0 0" fill="#231F20" fill-rule="nonzero" fill-opacity="1" transform="matrix(1 0 0 -1 575.881 324.31)"/><path d="M0 0C-0.0184713-0.148314-0.0418321-0.291738-0.0646497-0.421038L1.63363-0.421038 1.63363-2.94346C1.63363-3.1749 1.57332-3.28138 1.41143-3.34168 1.24953-3.40633 0.981154-3.40633 0.61553-3.40633 0.587823-3.29985 0.523173-3.13795 0.46287-3.03636 0.726902-3.04994 1.00886-3.0456 1.08764-3.04071 1.17076-3.04071 1.19412-3.01789 1.19412-2.94346L1.19412-0.819258-1.5554-0.819258-1.5554-3.40633-1.98567-3.40633-1.98567-0.421038-0.481341-0.421038C-0.467216-0.296085-0.444399-0.148314-0.430274 3.01578e-16L-2.20298 3.01578e-16-2.20298 0.402566-0.388985 0.402566C-0.37486 0.555227-0.365624 0.703541-0.361278 0.83284L0.110828 0.786662C0.0972462 0.661709 0.0787748 0.532409 0.0603035 0.402566L1.84224 0.402566 1.84224 0Z" fill="#231F20" fill-rule="nonzero" fill-opacity="1" transform="matrix(1 0 0 -1 560.727 321.495)"/><path d="M0 0 0-0.758955-0.407456-0.758955-0.407456 0-1.33754 0-1.33754 0.347153-0.407456 0.347153-0.407456 0.745373-1.2403 0.745373-1.2403 1.08329-0.814912 1.08329C-0.851855 1.23595-0.944211 1.44402-1.03222 1.59668L-0.694305 1.68469C-0.592713 1.5228-0.495466 1.3006-0.453634 1.15718L-0.698651 1.08329 0.0603035 1.08329C0.138535 1.268 0.235781 1.5228 0.282503 1.69882L0.670944 1.61081C0.592169 1.4299 0.513938 1.24519 0.435163 1.08329L0.874672 1.08329 0.874672 0.745373 0 0.745373 0 0.347153 0.962683 0.347153 0.962683 0Z" fill="#231F20" fill-rule="nonzero" fill-opacity="1" transform="matrix(1 0 0 -1 560.736 324.04)"/><path d="M0 0C-0.240671-0.365624-0.597059-0.77308-0.916504-1.0458-0.99039-0.957793-1.1387-0.83773-1.22671-0.77308-0.930086-0.52752-0.587823-0.15266-0.421038 0.148314Z" fill="#231F20" fill-rule="nonzero" fill-opacity="1" transform="matrix(1 0 0 -1 564.331 323.74)"/><path d="M304.448 228.509 302.37 228.509 302.37 229.143 304.448 229.143ZM301.945 229.518 301.945 228.138 303.194 228.138 303.194 227.032C303.194 226.973 303.171 226.954 303.092 226.954 303.009 226.949 302.722 226.949 302.449 226.958 302.5 226.843 302.565 226.667 302.588 226.542 302.977 226.542 303.245 226.542 303.421 226.606 303.597 226.672 303.648 226.787 303.648 227.023L303.648 228.138 304.902 228.138 304.902 229.518Z" fill="#231F20" fill-rule="nonzero" fill-opacity="1" transform="matrix(1 0 0 -1 261.771 551.462)"/><path d="M0 0C0.286849-0.291738 0.661709-0.698651 0.83773-0.962683L0.458524-1.21259C0.296085-0.953447-0.0603035-0.523173-0.356388-0.217853Z" fill="#231F20" fill-rule="nonzero" fill-opacity="1" transform="matrix(1 0 0 -1 566.336 323.582)"/><path d="M0 0 0 0.340633C0.321075 0.372143 0.544904 0.424298 0.671487 0.49764 0.79807 0.570982 0.893144 0.744286 0.95562 1.01755L1.30603 1.01755 1.30603-2.50341 0.831753-2.50341 0.831753 0Z" fill="#231F20" fill-rule="nonzero" fill-opacity="1" transform="matrix(1 0 0 -1 519.058 322.07)"/><path d="M0 0C-0.145598-0.115718-0.306407-0.173848-0.482428-0.173848-0.727988-0.173848-0.906725-0.105939-1.01864 0.0298801-1.13055 0.165155-1.18651 0.348239-1.18651 0.578044-1.18651 0.821431-1.12241 1.01538-0.995279 1.16098-0.86761 1.30658-0.694848 1.37937-0.477538 1.37937-0.27544 1.37937-0.108655 1.31527 0.0222743 1.18814 0.153203 1.06102 0.218396 0.867066 0.218396 0.607381 0.218396 0.318359 0.145598 0.115718 0 0M0.579131 1.08818C0.383009 1.55214 0.027707 1.78411-0.487317 1.78411-0.869783 1.78411-1.15826 1.66242-1.35438 1.41903-1.54996 1.17565-1.64775 0.893687-1.64775 0.573155-1.64775 0.239584-1.54888-0.033683-1.35058-0.24556-1.15229-0.457981-0.882821-0.563919-0.542188-0.563919-0.373773-0.563919-0.21731-0.531866-0.0717123-0.468846 0.0738854-0.405283 0.196122-0.295541 0.294998-0.139078 0.232522-0.680723 0.12604-1.03983-0.0233608-1.21694-0.173305-1.39404-0.354215-1.48205-0.566635-1.48205-0.68018-1.48205-0.782315-1.45761-0.872499-1.40817-1.04906-1.31472-1.14359-1.14468-1.15663-0.899663L-1.60592-0.899663C-1.60592-1.17293-1.51628-1.40002-1.337-1.58093-1.15772-1.76184-0.894773-1.85257-0.549251-1.85257-0.0342263-1.85257 0.331398-1.57495 0.547078-1.01864 0.67692-0.684526 0.74157-0.301517 0.74157 0.130929 0.74157 0.513938 0.687786 0.833383 0.579131 1.08818" fill="#231F20" fill-rule="nonzero" fill-opacity="1" transform="matrix(1 0 0 -1 522.505 322.817)"/><path d="M0 0C-0.136905-0.204271-0.320532-0.306407-0.551424-0.306407-0.838273-0.306407-1.04146-0.139078-1.15989 0.195036-1.23758 0.413975-1.27615 0.703541-1.27615 1.06428-1.27615 1.5429-1.21585 1.90581-1.09416 2.15191-0.973005 2.39747-0.781229 2.52079-0.519371 2.52079-0.234151 2.52079-0.0418321 2.39095 0.0570438 2.13181 0.15592 1.87267 0.205358 1.54236 0.205358 1.14033 0.205358 0.584563 0.136905 0.204271 0 0M0.447115 2.3551C0.243387 2.73213-0.0874672 2.92064-0.545448 2.92064-1.05395 2.92064-1.40545 2.65227-1.5994 2.11605-1.70317 1.82758-1.75478 1.48314-1.75478 1.08112-1.75478 0.562833-1.6684 0.149944-1.49564-0.158093-1.28865-0.526976-0.972462-0.711147-0.547621-0.711147-0.077145-0.711147 0.261858-0.485688 0.469389-0.0347696 0.612814 0.279786 0.684526 0.677463 0.684526 1.15772 0.684526 1.66514 0.605208 2.0639 0.447115 2.3551" fill="#231F20" fill-rule="nonzero" fill-opacity="1" transform="matrix(1 0 0 -1 525.298 323.95)"/><path d="M0 0C0.109198 0.225459 0.322705 0.430274 0.640521 0.614987L1.1148 0.888797C1.32722 1.01212 1.47608 1.11752 1.56191 1.20498 1.69665 1.34189 1.76401 1.49889 1.76401 1.67492 1.76401 1.88136 1.70262 2.04489 1.57876 2.16604 1.45543 2.28719 1.29082 2.34803 1.08492 2.34803 0.780686 2.34803 0.569895 2.23232 0.453091 2.00142 0.390614 1.87756 0.355845 1.70588 0.349326 1.4864L-0.102136 1.4864C-0.0972462 1.79389-0.0407456 2.04543 0.0679093 2.23938 0.260229 2.58164 0.600318 2.75277 1.08764 2.75277 1.49238 2.75277 1.78846 2.64357 1.9748 2.42463 2.16169 2.20569 2.25513 1.96176 2.25513 1.69393 2.25513 1.41088 2.15571 1.16858 1.95688 0.968115 1.84116 0.850768 1.63471 0.709517 1.337 0.543275L0.998539 0.355845C0.837186 0.266748 0.710603 0.181997 0.618247 0.101049 0.453634-0.0418321 0.350412-0.201012 0.307493-0.375403L2.23829-0.375403 2.23829-0.794811-0.18906-0.794811C-0.172218-0.490577-0.109198-0.225459 0 0" fill="#231F20" fill-rule="nonzero" fill-opacity="1" transform="matrix(1 0 0 -1 526.358 323.779)"/><path d="M0 0 0-0.421038-4.01752-0.421038-4.01752 0-2.17527 0C-2.24916 0.148314-2.33717 0.319445-2.42029 0.453634L-2.00414 0.587823C-1.88353 0.411802-1.74011 0.171132-1.66622 0Z" fill="#231F20" fill-rule="nonzero" fill-opacity="1" transform="matrix(1 0 0 -1 567.182 321.213)"/><path d="M0 0C-0.12441 0.201555-0.321075 0.263488-0.542188 0.193949-0.669858 0.153747-0.809479 0.140708-0.943668 0.139622-1.03385 0.138535-1.12621 0.174391-1.21422 0.202098-1.45326 0.27707-1.69067 0.354758-1.92754 0.435706-2.23069 0.538928-2.5322 0.64867-2.83589 0.750806-3.00866 0.808393-3.18413 0.856201-3.35852 0.908355-3.36396 0.933889-3.36885 0.959966-3.37374 0.9855-3.24715 1.11969-3.12383 1.25659-2.99344 1.38644-2.91413 1.46467-2.82177 1.52986-2.73865 1.60429-2.59794 1.73087-2.3752 1.80041-2.41812 2.05847-2.42029 2.07042-2.4029 2.08509-2.39801 2.09976-2.34043 2.27252-2.28284 2.44311-2.43115 2.605-2.51971 2.7017-2.59414 2.81253-2.68595 2.90598-2.71094 2.93151-2.79352 2.94075-2.81851 2.91956-2.86469 2.88099-2.92553 2.80601-2.91521 2.76147-2.87392 2.58381-2.95378 2.43333-3.04071 2.31381-3.25856 2.01338-3.50629 1.73468-3.74697 1.45109-3.79477 1.39513-3.86757 1.36145-3.92299 1.31147-4.00556 1.23704-4.11694 1.17021-4.15279 1.07623-4.19734 0.95725-4.18539 0.814369-4.1843 0.68181-4.18376 0.5574-3.9257 0.365081-3.81759 0.418865-3.56877 0.543275-3.31723 0.448745-3.08689 0.407456-2.72941 0.342806-2.35401 0.291738-2.03619 0.0804046-1.99436 0.0526976-1.93623 0.0521544-1.88951 0.0304234-1.50324-0.149944-1.11643-0.329224-0.732877-0.516111-0.501442-0.629112-0.28033-0.765474-0.0450918-0.870869 0.140165-0.95399 0.2787-0.881735 0.310753-0.685069 0.326508-0.59054 0.290109-0.475909 0.24556-0.385725 0.178194-0.249906 0.0798614-0.129843 0 0" fill="#231F20" fill-rule="nonzero" fill-opacity="1" transform="matrix(1 0 0 -1 531.31 344.185)"/><path d="M0 0C-0.039659 0.243387-0.241757 0.36671-0.40474 0.411802-0.533496 0.447658-0.599232 0.376489-0.64704 0.274354-0.720382 0.118977-0.797527-0.033683-0.862177-0.192319-0.889341-0.259142-0.924653-0.360734-0.894773-0.405283-0.817085-0.521-0.70517-0.614444-0.581847-0.742113-0.470476-0.752435-0.348782-0.767104-0.226002-0.77308 0.0478082-0.785032 0.174391-0.622593 0.101049-0.355845 0.0684526-0.236868 0.0195579-0.120607 0 0" fill="#231F20" fill-rule="nonzero" fill-opacity="1" transform="matrix(1 0 0 -1 533.558 342.504)"/><path d="M0 0C0.0972462-0.162439 0.31184-0.18091 0.430817-0.0510678 0.553597 0.0820345 0.687242 0.205901 0.823061 0.325965 0.871413 0.36834 0.939865 0.387355 1.03168 0.433533 1.01158 0.511765 1.01321 0.586193 0.976808 0.623679 0.945298 0.655733 0.868696 0.658992 0.815455 0.651386 0.529693 0.609011 0.297715 0.728531 0.172218 0.980067 0.15755 1.00886 0.0842076 1.03602 0.0526976 1.02462-0.199382 0.931173-0.372686 0.598145-0.196122 0.346066-0.120064 0.237954-0.0679093 0.113544 0 0" fill="#231F20" fill-rule="nonzero" fill-opacity="1" transform="matrix(1 0 0 -1 530.307 342.859)"/><path d="M0 0C0.0717123 0.129843 0.137992 0.264031 0.192862 0.40148 0.208617 0.440596 0.18906 0.509048 0.161353 0.546534 0.0852941 0.650843-0.0201012 0.73668-0.083121 0.846965-0.165699 0.991476-0.296628 1.0219-0.433533 1.02625-0.500356 1.02788-0.605208 0.981154-0.627482 0.928456-0.653559 0.86761-0.604665 0.776883-0.593256 0.698108-0.579131 0.600318-0.533496 0.486231-0.566635 0.406369-0.637261 0.237954-0.742656 0.0820345-0.848052-0.0689959-0.950731-0.21568-1.07025-0.350412-1.18434-0.488404-1.25062-0.568809-1.32124-0.644867-1.39024-0.723099-1.41034-0.713863-1.43099-0.704084-1.45163-0.694848-1.39133-0.49275-1.45489-0.330854-1.58147-0.178737-1.61516-0.137992-1.61624-0.0581304-1.61081 0.00108655-1.58365 0.279786-1.53801 0.556857-1.52008 0.835556-1.4902 1.29462-1.84985 1.48368-2.24427 1.42827-2.28501 1.42229-2.32196 1.38807-2.36107 1.36688-2.33934 1.33157-2.32141 1.29408-2.29588 1.26257-2.24535 1.20064-2.14974 1.14522-2.1443 1.08112-2.11551 0.725815-2.07042 0.365081-2.10791 0.0141251-2.12964-0.193949-2.24807-0.447115-2.40779-0.567722-2.53818-0.666598-2.70768-0.849138-2.94238-0.772537-2.99181-0.756238-3.08037-0.777969-3.11622-0.815455-3.21293-0.917048-3.33027-0.881191-3.44273-0.900749-3.63451-0.933346-3.83715-0.882278-4.02023-1.0181-4.10444-1.08003-4.24189-1.14305-4.38368-1.06373-4.42389-1.04091-4.55373-1.09361-4.57872-1.14359-4.67814-1.33917-4.75854-1.54562-4.83025-1.75315-4.84981-1.81019-4.83677-1.9145-4.7982-1.94492-4.75583-1.97752-4.66347-1.96068-4.59828-1.94384-4.5483-1.93025-4.49397-1.89331-4.46354-1.85039-4.39781-1.75912-4.3261-1.75586-4.23157-1.79607-4.15116-1.82975-4.08869-1.81834-4.00991-1.7488-3.90506-1.65644-3.76326-1.55214-3.63668-1.55105-3.36667-1.54779-3.20478-1.38155-3.0331-1.23106-2.84133-1.06319-2.63271-1.01864-2.49852-1.1512-2.57675-1.25877-2.65553-1.36471-2.73158-1.47227-2.88044-1.68252-3.05701-1.87104-3.21401-2.07096-3.47424-2.40236-3.78011-2.63543-4.15551-2.80764-4.22342-2.83915-4.23972-2.98312-4.27992-3.07493-4.21255-3.09178-4.13215-3.14013-4.08108-3.11894-3.87138-3.03147-3.65298-2.94781-3.47261-2.81525-3.27214-2.66694-3.11133-2.46484-2.92988-2.2899-2.8033-2.16767-2.67345-2.04815-2.53981-1.93406-2.50939-1.90798-2.44148-1.88625-2.41649-1.90255-2.38552-1.92265-2.36542-1.98513-2.36868-2.0275-2.3828-2.22471-2.40345-2.42192-2.42789-2.61804-2.45614-2.84133-2.48983-3.06461-2.52568-3.28681-2.53112-3.32158-2.55285-3.3683-2.58055-3.38188-2.7267-3.45251-2.87664-3.51444-3.06353-3.59648-3.04505-3.66058-3.04234-3.7687-2.9891-3.83878-2.89348-3.96428-2.77016-4.06913-2.6539-4.17724-2.57947-4.24623-2.25948-4.22668-2.21384-4.14247-2.1204-3.96862-2.00957-3.79314-1.96828-3.60517-1.90092-3.30202-1.88516-2.98747-1.8455-2.6778-1.83844-2.62293-1.82432-2.5686-1.80747-2.5159-1.72761-2.26709-1.60375-2.0237-1.57767-1.76999-1.5554-1.55431-1.44728-1.40382-1.30114-1.33157-1.03005-1.19792-0.793724-1.02951-0.582934-0.821431-0.470476-0.710603-0.367797-0.587823-0.277613-0.458524-0.174934-0.312926-0.0863807-0.156463 0 0" fill="#231F20" fill-rule="nonzero" fill-opacity="1" transform="matrix(1 0 0 -1 538.996 343.888)"/><path d="M0 0C-0.151574 0.162982-0.333571 0.304777-0.625852 0.335744-0.664968 0.317272-0.740483 0.28196-0.814912 0.244474-0.85946 0.221656-0.899663 0.18417-0.946384 0.173848-1.17836 0.12278-1.41143 0.0798614-1.64395 0.0309667-1.74771 0.00923567-1.85691-0.00543275-1.9509-0.0505245-2.04597-0.0967029-2.05629-0.172761-1.97698-0.267291-1.88788-0.372686-1.77922-0.402566-1.65427-0.405283-1.38481-0.410716-1.1148-0.406913-0.845335-0.418865-0.666055-0.426471-0.487861-0.454178-0.309123-0.473735-0.159723-0.490034-0.00543275-0.462327 0.0499813-0.322705 0.0852941-0.231978 0.0635631-0.0684526 0 0" fill="#231F20" fill-rule="nonzero" fill-opacity="1" transform="matrix(1 0 0 -1 541.005 344.363)"/><path d="M0 0C-0.138535 0.0532409-0.276527 0.110285-0.418865 0.151574-0.666055 0.224372-0.76982 0.163526-0.870326-0.106482-0.788292-0.172761-0.705714-0.247733-0.61553-0.311296-0.4281-0.444399-0.413975-0.576958-0.542731-0.774166-0.586193-0.840446-0.584563-0.943125-0.585107-1.02896-0.58565-1.12241-0.507962-1.14794-0.443312-1.10719-0.179281-0.940408 0.0869239-0.76982 0.206988-0.458524 0.2787-0.27381 0.1858-0.0717123 0 0" fill="#231F20" fill-rule="nonzero" fill-opacity="1" transform="matrix(1 0 0 -1 539.545 345.643)"/><path d="M0 0C-0.231978 0.0798614-0.393874 0.233608-0.553597 0.404196-0.665511 0.52426-0.863263 0.479712-0.866523 0.323792-0.870326 0.168415-0.814912 0.00162982-0.747546-0.142338-0.694305-0.255339-0.557943-0.328138-0.503072-0.440596-0.397677-0.656819-0.358561-0.698108-0.158093-0.663882 0.108655-0.618247 0.164069-0.563376 0.176564-0.332484 0.18743-0.11952 0.177108-0.0608468 0 0" fill="#231F20" fill-rule="nonzero" fill-opacity="1" transform="matrix(1 0 0 -1 539.38 347.77)"/><path d="M0 0C0.219483 0.0673661 0.406913 0.149401 0.601948 0.176021 0.722012 0.192862 0.874129 0.15755 0.974635 0.0901836 1.12838-0.0124953 1.10285-0.200468 0.930086-0.288479 0.777426-0.366167 0.610641-0.421581 0.444399-0.46613 0.0309667-0.578044 0.0282503-0.657906-0.0342263-0.989303-0.0657362-1.15609-0.135819-1.31527-0.18254-1.47934-0.206444-1.563-0.216223-1.65101-0.232522-1.73685-0.216767-1.75369-0.200468-1.77053-0.184713-1.78737-0.00543275-1.73957 0.1858-1.7162 0.350955-1.63852 0.702997-1.47119 1.07514-1.43533 1.45054-1.44946 1.56843-1.4538 1.70045-1.54507 1.79063-1.63308 1.84061-1.68252 1.85963-1.85094 1.82051-1.88679 1.73359-1.96611 1.59831-2.04271 1.48803-2.03674 1.01864-2.01012 0.554683-1.98676 0.0950731-2.13072-0.0630199-2.18016-0.242844-2.15734-0.407456-2.19103-0.545448-2.21928-0.703541-2.2497-0.803503-2.33662-0.988217-2.49635-1.21748-2.48765-1.42284-2.56263-1.69067-2.66042-1.95688-2.8272-2.24372-2.78428-2.42518-2.75766-2.59794-2.61315-2.75223-2.49254-2.80873-2.44854-2.8397-2.31326-2.68975-2.26926-2.6452-2.25568-2.61478-2.19972-2.57078-2.18016-2.52079-2.15789-2.45126-2.12855-2.41051-2.14702-2.13127-2.27197-1.85637-2.22688-1.58093-2.14593-1.3897-2.08943-1.19194-2.04652-1.01321-1.96339-0.937149-1.92808-0.864893-1.80856-0.856744-1.72109-0.841532-1.5668-0.875759-1.40762-0.892057-1.25062-0.908355-1.09524-1.01973-1.0094-1.15826-1.0822-1.33157-1.17347-1.5103-1.18054-1.68198-1.14903-1.86398-1.1148-2.07042-1.10774-2.20352-0.940952-2.28664-0.8361-2.24318-0.748089-2.11008-0.716579-1.73359-0.625852-1.35601-0.536755-0.984414-0.42973-0.886624-0.40148-0.786662-0.337917-0.781772-0.192862-0.77471 0.0135819-0.734507 0.218396-0.723642 0.424841-0.714406 0.592713-0.584563 0.690502-0.419408 0.64378-0.203728 0.58239-0.163526 0.387355-0.0847508 0.221113-0.0521544 0.152117-0.0298801 0.0782315 0 0" fill="#231F20" fill-rule="nonzero" fill-opacity="1" transform="matrix(1 0 0 -1 548.935 346.141)"/><path d="M0 0C0.312926 0.0450918 0.617703 0.089097 0.92248 0.133102 0.930629 0.110285 0.939322 0.0880105 0.947471 0.0657362 0.817628-0.0195579 0.694305-0.120607 0.554683-0.186343 0.380292-0.268921 0.189603-0.316729 0.0103222-0.391158-0.161353-0.46287-0.321619-0.563919-0.49601-0.624766-0.614987-0.666598-0.794811-0.719839-0.868696-0.664425-1.03657-0.537842-1.1311-0.331941-1.10502-0.107025-1.09904-0.0570438-1.02027 0.0043462-0.962683 0.0255339-0.775796 0.0945298-0.606838 0.172761-0.473735 0.3352-0.371057 0.46124-0.223286 0.549251-0.103765 0.663338 0.0141251 0.775253 0.12441 0.89586 0.230348 1.01973 0.256969 1.05124 0.271637 1.14142 0.259142 1.14903 0.203185 1.18162 0.131472 1.21802 0.0717123 1.21042-0.179281 1.17728-0.429187 1.15337-0.667684 1.25714-0.757325 1.29625-0.840446 1.36036-0.912158 1.42827-0.990933 1.50215-0.925197 1.65373-0.806763 1.67763-0.450375 1.74934-0.0923567 1.81345 0.262945 1.88842 0.523173 1.94329 0.780686 2.01012 1.03874 2.07205 1.04961 2.07422 1.06482 2.07422 1.07079 2.08129 1.30929 2.3665 1.68632 2.35129 1.99219 2.48874 2.19483 2.58001 2.4556 2.57458 2.68595 2.55665 2.78102 2.54904 2.90924 2.43604 2.90978 2.27252 2.91032 2.13996 2.80656 2.14702 2.73919 2.09106 2.53601 1.92211 2.29751 1.96774 2.07151 1.92482 1.8053 1.87484 1.54562 1.7852 1.28484 1.70643 1.2604 1.69882 1.23812 1.64884 1.23378 1.61624 1.22671 1.5668 1.23215 1.51465 1.23921 1.46467 1.28647 1.13599 1.06102 0.988217 0.83447 0.830667 0.665511 0.712776 0.512308 0.572068 0.351499 0.442226 0.330311 0.424841 0.308037 0.402023 0.282503 0.396047 0.0798614 0.348782 0.0184713 0.201555 0 0" fill="#231F20" fill-rule="nonzero" fill-opacity="1" transform="matrix(1 0 0 -1 546.94 345.138)"/><path d="M0 0C-0.021731-0.043462-0.0402023-0.15103-0.0939865-0.172218-0.176021-0.205358-0.299888-0.211877-0.374316-0.171675-0.732877 0.0201012-1.09959 0.174934-1.51085 0.203728-1.54833 0.206444-1.58473 0.231978-1.62113 0.246647-1.60103 0.288479-1.59071 0.342263-1.55865 0.36997-1.35601 0.541102-1.1148 0.542188-0.868696 0.515568-0.791551 0.506875-0.71332 0.49601-0.636718 0.500899-0.416148 0.514481-0.148314 0.368883-0.0483514 0.169502-0.0287936 0.130929-0.0233608 0.0847508 0 0" fill="#231F20" fill-rule="nonzero" fill-opacity="1" transform="matrix(1 0 0 -1 550.335 344.961)"/><path d="M0 0C-0.0152117-0.333027-0.104309-0.385725-0.476995-0.428644-0.871413-0.474279-1.25985-0.574785-1.6559-0.652473-1.64123-0.591626-1.71946-0.478625-1.56409-0.405283-1.46413-0.357475-1.38915-0.258599-1.29734-0.189603-1.19357-0.110828-1.10719 0.00380292-0.943125-0.0423754-0.89586-0.0559573-0.812196-0.0260772-0.777426 0.0130386-0.540015 0.28196-0.289565 0.249363-0.0255339 0.0630199-0.0168415 0.0418321-0.00869239 0.0211877 0 0" fill="#231F20" fill-rule="nonzero" fill-opacity="1" transform="matrix(1 0 0 -1 558.438 343.394)"/><path d="M0 0C-0.0994193 0.0184713-0.208617 0.0211877-0.299888 0.0630199-0.360191 0.0901836-0.412345 0.167329-0.434076 0.233065-0.444942 0.265118-0.386268 0.332484-0.344436 0.366167-0.307493 0.396047-0.248277 0.420495-0.203185 0.414519 0.123323 0.3716 0.279243 0.680723 0.538928 0.779599 0.58728 0.798614 0.576414 1.01484 0.560659 1.13599 0.554683 1.18488 0.461783 1.25877 0.410172 1.25768 0.312926 1.25551 0.210791 1.21911 0.121694 1.1751-0.0255339 1.10339-0.159723 1.00397-0.309123 0.939865-0.344979 0.924653-0.420495 1.00397-0.478082 1.04037-0.436793 1.1023-0.409086 1.20009-0.353128 1.21965-0.055414 1.32613 0.102679 1.5994 0.337917 1.77868 0.360191 1.79552 0.344979 1.92048 0.318359 1.93351 0.249363 1.96611 0.141795 1.99979 0.089097 1.96828-0.0260772 1.89874-0.115174 1.78737-0.217853 1.69665-0.386268 1.54833-0.516654 1.53747-0.699738 1.66242-0.76819 1.70914-0.801873 1.76727-0.70517 1.83192-0.43299 2.01555-0.155377 2.19211 0.103765 2.39312 0.275984 2.52677 0.40311 2.72072 0.580761 2.84513 0.779056 2.98366 0.854028 3.26508 1.13055 3.30474 1.18597 3.31289 1.23975 3.33082 1.29462 3.34168 1.4739 3.37917 1.54344 3.34114 1.57876 3.18848 1.61516 3.03039 1.54833 2.94292 1.40274 2.87555 1.28267 2.82014 1.18217 2.72126 1.07188 2.64357 1.03331 2.61587 0.990933 2.59414 0.950187 2.56969 0.911615 2.54687 0.840989 2.52405 0.840989 2.50178 0.842076 2.4393 0.85946 2.36705 0.896403 2.31978 0.915418 2.29588 0.999082 2.3024 1.04146 2.32196 1.16587 2.38063 1.28973 2.44365 1.40274 2.52188 1.52823 2.60826 1.6722 2.6251 1.7325 2.53927 1.78629 2.46266 1.7162 2.28773 1.60701 2.21602 1.46304 2.12312 1.31418 2.03619 1.17999 1.9308 0.990933 1.7814 0.989846 1.54833 1.15935 1.37503 1.2441 1.2881 1.2517 1.20498 1.1713 1.09524 1.05069 0.930086 0.920307 0.795354 0.71169 0.748089 0.669314 0.73831 0.642151 0.670401 0.604121 0.633458 0.474279 0.505789 0.34009 0.382465 0.212964 0.252079 0.140165 0.177108 0.0776883 0.0923567 0 0" fill="#231F20" fill-rule="nonzero" fill-opacity="1" transform="matrix(1 0 0 -1 554.304 345.059)"/><path d="M0 0C-0.261858-0.140165-0.538928-0.294455-0.821975-0.436793-0.905639-0.478625-1.00723-0.481341-1.09687-0.513395-1.17891-0.542731-1.26692-0.574785-1.33374-0.628569-1.5304-0.788835-1.51085-0.752435-1.72164-0.592713-1.83138-0.509592-1.89005-0.362364-1.99219-0.266748-2.1329-0.135819-2.2258 0.0635631-2.46701 0.0662795-2.52949 0.0668228-2.59088 0.15103-2.65227 0.196665-2.60392 0.245017-2.56371 0.30858-2.50613 0.337917-2.30946 0.438423-2.0275 0.37323-1.87756 0.208074-1.75423 0.0717123-1.63363-0.0684526-1.49889-0.193949-1.41143-0.275984-1.30712-0.336287-1.17836-0.242844-0.994736-0.110285-0.800244 0.00760585-0.617703 0.142338-0.576958 0.172761-0.531866 0.264031-0.548164 0.295541-0.626939 0.446572-0.580217 0.595972-0.573698 0.747003-0.573155 0.767104-0.589453 0.787748-0.611727 0.843162-0.785575 0.772537-0.955077 0.704084-1.12892 0.634002-1.20933 0.745916-1.26094 0.845335-1.09796 0.934432-1.04852 0.962139-1.00832 1.01647-0.977351 1.06699-0.780142 1.38915-0.466673 1.40545-0.141795 1.38155 0.0135819 1.37014 0.102136 1.29028 0.0912701 1.11697 0.0809479 0.954534 0.0820345 0.808936 0.000543275 0.643237-0.0776883 0.484601-0.0065193 0.252623 0 0" fill="#231F20" fill-rule="nonzero" fill-opacity="1" transform="matrix(1 0 0 -1 557.451 346.082)"/><path d="M0 0C-0.12441-0.0233608-0.213507-0.033683-0.299344-0.0570438-0.402023-0.0858374-0.512308-0.108655-0.601405-0.163526-0.786662-0.2787-0.969202-0.40311-1.13544-0.543818-1.24682-0.638348-1.31201-0.789378-1.4261-0.877389-1.65481-1.05341-1.89386-1.22726-2.21547-1.07188-2.31544-1.02353-2.34532-0.975721-2.28664-0.884451-2.19592-0.743743-2.07531-0.653016-1.89549-0.670944-1.78683-0.68181-1.71838-0.648127-1.65373-0.541645-1.6032-0.458524-1.47119-0.362907-1.38807-0.37323-1.15283-0.40311-0.982241-0.253709-0.881191-0.12767-0.741027 0.0461783-0.528606 0.098876-0.39822 0.262945-0.324878 0.355845-0.252079 0.449831-0.176564 0.541102-0.039659 0.70517 0.113001 0.844249 0.330311 0.899119 0.432447 0.925197 0.525347 0.987673 0.627482 1.01158 0.695935 1.02733 0.773623 1.00451 0.846965 0.998539 0.839359 0.932259 0.843705 0.862177 0.821431 0.80133 0.728531 0.544361 0.542731 0.392788 0.272724 0.352042 0.160266 0.3352 0.114631 0.280873 0.0994193 0.167329 0.0901836 0.102679 0.0282503 0.0450918 0 0" fill="#231F20" fill-rule="nonzero" fill-opacity="1" transform="matrix(1 0 0 -1 554.512 345.804)"/><path d="M0 0C-0.12115 0.141795-0.0114088 0.285762 0.00760585 0.422124 0.0266205 0.5574 0.0939865 0.685069 0.123323 0.819801 0.15592 0.971375 0.071169 1.04309-0.0858374 1.0219-0.145054 1.01375-0.21242 1.01103-0.265661 1.03222-0.350412 1.06536-0.394417 1.13273-0.312383 1.21368-0.217853 1.30712-0.116804 1.39296-0.0184713 1.4826 0.0738854 1.56789 0.186343 1.64015 0.253709 1.74228 0.345523 1.8819 0.473735 1.94384 0.61879 1.99382 0.729618 2.03185 0.818715 2.00577 0.872499 1.90037 0.930629 1.78737 0.919221 1.67926 0.812196 1.60157 0.71332 1.52986 0.608468 1.46684 0.503616 1.40382 0.409629 1.34732 0.31021 1.30006 0.217853 1.24084 0.191233 1.22345 0.161353 1.1751 0.167872 1.15011 0.178194 1.11317 0.21405 1.06428 0.247733 1.05558 0.533496 0.981697 0.568809 0.962139 0.526976 0.671487 0.506875 0.531866 0.410716 0.392788 0.319989 0.275984 0.239584 0.172218 0.118977 0.0994193 0 0" fill="#231F20" fill-rule="nonzero" fill-opacity="1" transform="matrix(1 0 0 -1 555.937 344.798)"/><path d="M0 0C0.0347696-0.159179-0.0499813-0.453634-0.169502-0.538385-0.302061-0.631828-0.456894-0.695935-0.49112-0.8926-0.499269-0.942038-0.637261-1.01158-0.702997-0.999625-0.83447-0.976808-0.896946-0.848052-0.851855-0.730704-0.731791-0.417778-0.902922-0.148857-0.950731 0.139078-0.961053 0.199925-0.970832 0.307493-0.944755 0.319989-0.855114 0.363994-0.732877 0.418865-0.653559 0.388985-0.515024 0.337374-0.400393 0.237954-0.241214 0.206988-0.15103 0.189603-0.0798614 0.0722555 0 0" fill="#231F20" fill-rule="nonzero" fill-opacity="1" transform="matrix(1 0 0 -1 555.77 340.739)"/><path d="M0 0C0.214593-0.276527 0.180367-0.620963-0.077145-0.818172-0.184713-0.900206-0.375403-0.874129-0.465586-0.77145-0.555227-0.669858-0.655733-0.576414-0.74483-0.473735-0.773623-0.440052-0.807849-0.366167-0.793724-0.349326-0.761671-0.311296-0.686156-0.265118-0.654103-0.279786-0.373773-0.407456-0.214593-0.268921-0.0852941-0.0423754-0.0722555-0.0190146-0.0282503-0.0130386 0 0" fill="#231F20" fill-rule="nonzero" fill-opacity="1" transform="matrix(1 0 0 -1 554.024 341.488)"/><path d="M0 0-7.08702-2.57947 7.08702-2.57947Z" fill="#231F20" fill-rule="nonzero" fill-opacity="1" transform="matrix(1 0 0 -1 543.514 311.921)"/><path d="M0 0 0-2.35021-2.67671-2.35021-2.67671 0-4.56622 0-4.56622-2.35021-7.24294-2.35021-7.24294 0-9.13245 0-9.13245-2.35021-10.6732-2.35021-10.6732 1.03005 3.42969 1.03005 3.42969-2.35021 1.88951-2.35021 1.88951 0Z" fill="#231F20" fill-rule="nonzero" fill-opacity="1" transform="matrix(1 0 0 -1 547.135 325.803)"/><path d="M274.691 235.15 288.794 235.15 288.794 236.352 274.691 236.352Z" fill="#231F20" fill-rule="nonzero" fill-opacity="1" transform="matrix(1 0 0 -1 261.771 551.462)"/><path d="M287.309 229.711 284.516 229.711 284.516 233.556 287.309 233.556ZM283.139 229.711 280.346 229.711 280.346 233.556 283.139 233.556ZM278.969 229.711 276.176 229.711 276.176 233.556 278.969 233.556ZM288.794 229.702 288.794 234.539 274.691 234.539 274.691 229.702 274.05 229.702 274.05 229.111 289.435 229.111 289.435 229.702Z" fill="#231F20" fill-rule="nonzero" fill-opacity="1" transform="matrix(1 0 0 -1 261.771 551.462)"/><path d="M0 0C-0.104852 0-0.298801-0.285219-0.331941-0.349869-0.361278-0.406913-0.396047-0.485144-0.421581-0.539472-0.469933-0.640521-0.515024-0.731248-0.561746-0.829037-0.61879-0.948558-0.712233-1.06102-0.765474-1.17782-0.865437-1.39567-0.774166-1.54399-0.530779-1.55051-0.294998-1.55648-0.0863807-1.33972 0.00923567-1.14088 0.0173848-1.12349 0.0255339-1.10556 0.0320532-1.08764 0.102136-0.904552 0.107568-0.820888 0.0929-0.628025 0.0782315-0.433533-0.0543275-0.31021 0 0" fill="#231F20" fill-rule="evenodd" fill-opacity="1" transform="matrix(1 0 0 -1 552.84 297.273)"/><path d="M0 0C-0.0255339-0.207531-0.0450918-0.39985-0.168415-0.58402-0.231435-0.677463-0.316729-0.758411-0.417235-0.810023-0.498183-0.851855-0.630742-0.902922-0.721469-0.890427-0.850225-0.873042-0.967029-0.839903-1.06536-0.748632-1.21585-0.608468-1.26637-0.367797-1.17891-0.180367-1.09416 0.000543275-0.902922 0.0967029-0.720925 0.153203-0.588366 0.194492-0.450375 0.209704-0.312926 0.224916-0.233608 0.233608-0.149401 0.262402-0.0695392 0.246103 0.0586737 0.220026 0.0168415 0.133646 0.0043462 0.033683 0.00271637 0.0222743 0.00108655 0.0114088 0 0M0.973005 5.7799C0.961053 5.6544 0.951274 5.58595 0.943125 5.45067 0.932259 5.26922 0.89423 5.09048 0.86598 4.9112 0.858374 4.86394 0.869239 4.7906 0.818715 4.76506 0.77471 4.74224 0.671487 4.78082 0.638348 4.81504 0.518284 4.93674 0.622593 5.16709 0.696478 5.28009 0.775253 5.39906 0.882821 5.54792 0.744286 5.66798 0.517741 5.86519 0.249363 5.5012-0.0043462 5.48055-0.0065193 5.49957-0.055414 5.6908-0.0342263 5.67994-0.126583 5.67994-0.170588 5.94179-0.283589 5.9293-0.261315 6.10586 0.00597602 6.23951 0.140165 6.32861 0.199925 6.36827 0.52426 6.51767 0.52426 6.56765 0.73668 6.58992 0.931716 6.74258 1.00288 6.36827 1.03385 6.20637 0.9855 5.91572 0.973005 5.7799M0.818172 4.24135C0.813282 4.12671 0.700281 4.10879 0.611184 4.09738 0.481341 4.08054 0.353672 4.04685 0.227089 4.01697 0.193406 4.00937-0.0880105 3.96428-0.0929 3.94472-0.0385725 4.17181 0.00271637 4.39455 0.0255339 4.62816 0.0391158 4.76669 0.0418321 4.96553 0.0402023 5.11656 0.039659 5.19153 0.000543275 5.36647 0.0456351 5.41102 0.0255339 5.4045 0.0190146 5.41102 0.0255339 5.43112 0.0266205 5.43492 0.129843 5.44796 0.139078 5.44796 0.18254 5.44904 0.209161 5.44198 0.245017 5.41319 0.305864 5.36266 0.336287 5.28009 0.34172 5.20294 0.349869 5.09918 0.322162 4.99595 0.312383 4.89219 0.302061 4.78897 0.314013 4.67434 0.385182 4.59828 0.443855 4.5358 0.535669 4.50538 0.610097 4.4668 0.71006 4.41519 0.781229 4.37064 0.899663 4.36901 0.851311 4.3701 0.819801 4.27557 0.818172 4.24135M0.703541 3.68558C0.703541 3.69861 0.34009 3.79803 0.314556 3.78554 0.353128 3.86214 0.664968 3.84258 0.743743 3.85508 0.741027 3.84747 0.740483 3.6758 0.703541 3.68558M-0.236324 4.63576C-0.24882 4.53852-0.263488 4.34131-0.326508 4.25167-0.436793 4.09357-0.534039 4.23483-0.602492 4.3337-0.704084 4.4793-0.693762 4.61675-0.669858 4.83134-0.656819 4.94652-0.610097 5.6104-0.463413 5.6104-0.463413 5.68537-0.337374 5.55661-0.323248 5.53054-0.293368 5.47404-0.302604 5.39037-0.293912 5.32138-0.271094 5.14861-0.246103 4.96336-0.233608 4.77267-0.231978 4.7455-0.231435 4.67488-0.236324 4.63576M2.47896 3.85508C2.44745 3.91864 2.39801 3.97568 2.36922 4.00502 2.26002 4.11422 2.12801 4.17887 1.96013 4.19408 1.80422 4.20875 1.62059 4.21527 1.45652 4.2044 1.34569 4.1968 1.27561 4.2044 1.2039 4.2044 1.21042 4.2044 1.28865 4.93348 1.29299 4.98835 1.30277 5.09592 1.29517 5.1986 1.30875 5.30834 1.34243 5.57997 1.36634 5.8527 1.38535 6.12542 1.39078 6.21072 1.37231 6.29003 1.37883 6.37424 1.38426 6.44976 1.39459 6.52473 1.39078 6.60133 1.38155 6.75725 1.30277 6.87568 1.18217 6.97184 1.02407 7.09788 0.788292 6.99466 0.58402 6.91697 0.330854 6.82027 0.0592169 6.58829-0.0939865 6.35849-0.166785 6.24929-0.270007 6.11238-0.3716 6.03089-0.523717 5.9092-0.556857 6.11727-0.548164 6.21886-0.534582 6.36881-0.545991 6.54483-0.523173 6.71759-0.516654 6.76649-0.500899 6.93273-0.463413 6.98651-0.400393 7.07615-0.153747 7.16525-0.0689959 7.19459 0.0179281 7.22501 0.0880105 7.28857 0.165155 7.31574 0.259142 7.34888 0.43462 7.35214 0.504159 7.4157 0.656276 7.55369-0.0043462 7.66886-0.0043462 7.53522-0.0521544 7.52164-0.137992 7.44721-0.173848 7.42548-0.233608 7.38908-0.308037 7.34888-0.37323 7.31574-0.403653 7.40972-0.34335 7.52761-0.353672 7.62486-0.359648 7.68299-0.360191 7.73188-0.40311 7.79925-0.529149 7.997-0.710603 7.884-0.812196 7.884-0.812196 7.83511-0.701368 7.84108-0.812196 7.84434-0.649756 7.76285-0.771993 7.3994-0.787205 7.26087-0.80133 7.13157-0.808936 7.06963-0.807306 6.94685-0.80622 6.84743-0.841532 6.70673-0.851855 6.59753-0.86272 6.48779-0.856201 6.27319-0.857287 6.1189-0.857287 6.03415-0.870869 5.90214-0.832297 5.83966-0.762214 5.72666-0.653559 5.67179-0.692675 5.51043-0.797527 5.07744-0.973548 4.62544-0.881191 4.17561-0.867066 4.10716-0.857831 4.02947-0.820888 3.96862-0.79807 3.93005-0.695935 3.87572-0.722012 3.82574-0.74157 3.78662-0.817628 3.80564-0.851855 3.80021-0.958336 3.78445-1.03928 3.74371-1.1512 3.71546-1.12675 3.72197-1.10774 4.15007-1.10502 4.18593-1.0985 4.26145-1.0181 4.76506-1.15935 4.71236-1.16424 4.6526-1.16913 4.44507-1.2604 4.44344-1.28593 4.44344-1.47771 4.95629-1.49455 5.01388-1.55377 5.22196-1.57224 5.43927-1.46032 5.63539-1.40056 5.74024-1.30495 5.86085-1.33646 5.98906-1.34949 6.04067-1.44946 6.20746-1.51737 6.20202-1.6233 6.19387-1.65264 5.93962-1.66948 5.85976-1.75315 5.47404-1.77868 5.07582-1.74283 4.68248-1.72544 4.49017-1.69393 4.29948-1.64667 4.11205-1.63797 4.07836-1.50161 3.59539-1.5103 3.59593-1.52226 3.59702-1.52552 3.60354-1.52008 3.61604-1.61787 3.61604-1.7977 3.51662-1.88951 3.48619-1.88951 3.5465-1.83844 3.60245-1.82921 3.67091-1.81943 3.74642-1.85963 3.89093-1.86452 3.96482-1.88082 4.21581-1.90798 4.5684-1.91885 4.89762-1.92862 5.16817-2.10845 5.30562-2.33771 5.42079-2.38389 5.44416-2.49743 5.52456-2.54741 5.49088-2.58979 5.46208-2.55285 5.33115-2.58707 5.33115-2.50939 5.20077-2.44202 5.14318-2.41757 5.01225-2.40453 4.93891-2.36976 4.78734-2.35781 4.69281-2.32467 4.42117-2.30783 4.09846-2.27306 3.8453-2.24807 3.66276-2.21439 3.53835-2.17853 3.35635-2.23449 3.35635-2.29805 3.22705-2.38769 3.25693-2.38769 3.2352-2.39801 3.25856-2.39801 3.23683-2.13181 3.18848-1.91287 3.22108-1.66948 3.26671-1.56843 3.28572-1.4462 3.36613-1.36199 3.30637-1.33809 3.28953-1.27126 3.13415-1.24084 3.12709-1.13164 3.10264-1.18434 3.3645-1.1512 3.41665-1.10067 3.49597-0.923567 3.51227-0.842076 3.52911-0.76982 3.54378-0.696478 3.55573-0.623679 3.56714-0.528063 3.58181-0.513395 3.56171-0.42973 3.5177-0.419408 3.51173-0.407999 3.50684-0.396047 3.50847-0.379206 3.51064-0.367797 3.5264-0.358561 3.54106-0.312383 3.61604-0.30532 3.62581-0.220569 3.64537-0.125496 3.66819-0.0293368 3.68721 0.0679093 3.70079 0.117891 3.70839 0.171132 3.70839 0.220569 3.71817 0.252623 3.72415 0.283046 3.74316 0.317272 3.73501 0.424841 3.70894 0.370513 3.5264 0.394417 3.44653 0.424298 3.34603 0.515568 3.23574 0.61553 3.19934 0.728531 3.15914 0.840989 3.25096 0.896946 3.34331 0.955077 3.43947 0.98876 3.54758 1.01647 3.65624 1.03548 3.73284 1.08927 3.81596 1.09307 3.89365 1.25605 3.86975 1.4261 3.92244 1.59125 3.91484 1.62276 3.91375 1.70697 3.92788 1.76021 3.91484 1.91504 3.87572 1.83627 3.88876 1.79063 3.81542 1.72761 3.71383 1.64612 3.6595 1.56083 3.56442 1.42012 3.40851 1.28213 3.25367 1.11697 3.1222 1.03602 3.05809 0.951817 2.99725 0.870869 2.93314 0.827407 2.89891 0.784489 2.86469 0.744286 2.8272 0.719296 2.80438 0.68018 2.72833 0.660079 2.71583 0.606295 2.6816 0.514481 2.74245 0.428644 2.73647 0.326508 2.72996 0.230892 2.68052 0.135275 2.64846-0.135819 2.55882-0.380836 2.42898-0.612814 2.29968-0.745373 2.2258-0.971375 2.02044-0.867066 1.83572-0.749176 1.62711-0.623679 1.83247-0.512851 1.90037-0.438966 1.94655-0.365081 1.97209-0.263488 2.01012-0.179824 2.04217 0.00760585 2.16984 0.105395 2.16984 0.0488947 1.83247-0.221656 1.62276-0.34335 1.33211-0.394961 1.20987-0.375403 1.05613-0.300974 0.946928-0.230348 0.842076-0.0885538 0.718752-0.162982 0.578044-0.239041 0.435163-0.425384 0.447658-0.562833 0.424841-0.723099 0.399307-0.991476 0.356388-1.12132 0.274897-1.69991-0.0885538-1.37068-1.0545-0.752435-1.17076-0.45961-1.22617-0.143968-1.12078 0.0782315-0.92737 0.2423-0.783945 0.375946-0.598145 0.454178-0.394417 0.507419-0.255882 0.537842-0.0939865 0.553597 0.0537842 0.55903 0.106482 0.544904 0.155377 0.580761 0.195579 0.636718 0.259142 0.760041 0.257512 0.8361 0.254796 1.0219 0.247733 1.19901 0.24882 1.38209 0.209161 1.60157 0.160809 1.79933 0.039659 2.0199-0.00543275 2.02967-0.00760585 2.04108-0.00977894 2.05032-0.0043462 2.06933 0.00597602 2.06227 0.0353129 2.05303 0.055414 2.01718 0.129299 1.98784 0.201555 1.95036 0.274897 1.89549 0.383009 1.86561 0.496553 1.76564 0.564462 1.63308 0.654646 1.44022 0.636175 1.28865 0.628569 1.10285 0.619333 0.914331 0.655733 0.728531 0.631828 0.61879 0.617703 0.562289 0.638891 0.547621 0.767104 0.536212 0.866523 0.568809 0.995822 0.506875 1.08112 0.435163 1.18054 0.299344 1.17402 0.215137 1.18271 0.0842076 1.1952-0.0657362 1.20281-0.164069 1.20281-0.155377 1.36742-0.0673661 1.4701 0.0353129 1.59125 0.0907269 1.65699 0.3716 1.91939 0.354758 1.97046 0.409629 1.95199 0.645954 2.27958 0.653559 2.28936 0.685069 2.33011 0.800244 2.42463 0.80622 2.46212 0.813825 2.50993 0.767104 2.64846 0.683983 2.64846 0.714406 2.75984 0.923024 2.82123 1.00288 2.84785 1.00288 2.80764 1.04961 2.85382 1.06265 2.84785 1.23486 2.84785 1.5065 2.99779 1.64612 3.07222 1.82214 3.1662 1.94655 3.28029 2.11008 3.37645 2.20244 3.43132 2.28773 3.49163 2.36868 3.54269 2.52786 3.64266 2.55937 3.69155 2.47896 3.85508" fill="#231F20" fill-rule="evenodd" fill-opacity="1" transform="matrix(1 0 0 -1 555.913 300.641)"/><path d="M0 0C0.0483514 0.0358561 0.178194 0.0342263 0.181454 0.110828 0.186886 0.221656-0.233608 0.362907-0.347696 0.353128-0.46124 0.34335-0.640521 0.208617-0.750806 0.274897-0.852398 0.335744-0.818172 0.606295-0.80622 0.70517-0.795897 0.793181-0.748632 0.829037-0.667141 0.8361-0.560116 0.844792-0.455264 0.867066-0.348782 0.878475-0.271094 0.886624-0.181454 0.884994-0.141251 0.968115-0.11952 1.01212-0.18417 1.17456-0.211877 1.20987-0.298801 1.32179-0.353128 1.23975-0.468846 1.20987-0.565006 1.18488-0.713863 1.13001-0.751349 1.23595-0.793724 1.35493-0.772537 1.54236-0.77145 1.66785-0.770907 1.81291-0.627482 1.79172-0.504702 1.81671-0.130386 1.89277 0.24393 1.96937 0.621506 2.02967 0.71169 2.0438 0.803503 2.05358 0.893144 2.07151 0.959423 2.08454 0.991476 2.10193 0.971375 2.02152 0.940408 1.89929 0.85946 1.79172 0.806763 1.67872 0.735051 1.52497 0.638891 1.41795 0.529693 1.2604 0.407999 1.08492 0.265118 0.888254 0.101049 0.716036 0.0641064 0.677463-0.00706257 0.581847-0.0706257 0.564462-0.137992 0.546534-0.219483 0.573155-0.285219 0.541102-0.390071 0.48949-0.24882 0.440052-0.200468 0.422668-0.0668228 0.375946 0.0885538 0.308037 0.234151 0.362364 0.384638 0.418865 0.534582 0.547621 0.657906 0.64867 0.900749 0.848052 1.12458 1.07025 1.32613 1.31092 1.42501 1.42936 1.51845 1.55214 1.60592 1.67872 1.64667 1.73739 1.67546 1.76782 1.72761 1.81019 1.76673 1.84224 1.79063 1.86072 1.80367 1.9145 1.83138 2.03402 1.74283 2.09704 1.68035 2.17853 1.60646 2.27415 1.6119 2.43224 1.49238 2.50341 1.41469 2.54959 1.30114 2.54361 1.21694 2.5284 1.11154 2.50884-0.319445 2.20515-0.514481 2.15789-0.640521 2.12746-0.713863 2.0965-0.738854 2.26165-0.760041 2.4029-0.770907 2.5284-0.733421 2.66694-0.701911 2.78428-0.672574 2.76527-0.563919 2.76744-0.49112 2.76907-0.417778 2.76907-0.345523 2.77776-0.204271 2.79406-0.578044 3.20369-0.603578 3.25259-0.663338 3.3683-0.604665 3.5264-0.621506 3.64972-0.644867 3.82574-0.619876 4.02947-0.581847 4.20386-0.55903 4.30925-0.554683 4.41845-0.568265 4.52493-0.575328 4.58035-0.587823 4.63576-0.61553 4.68411-0.673117 4.78516-0.789921 4.84112-0.905639 4.85362-0.933889 4.85687-0.961596 4.85742-0.98876 4.85687-1.10013 4.85362-1.20933 4.82374-1.31907 4.80581-1.41958 4.79005-1.55322 4.79005-1.62819 4.7091-1.70914 4.62218-1.56354 4.52059-1.50215 4.47767-1.46141 4.44833-1.40817 4.4266-1.38263 4.38314-1.35601 4.33859-1.34895 4.26416-1.33863 4.21309-1.27778 3.91592-1.29897 3.61169-1.30386 3.31017-1.30658 3.14882-1.3408 3.14719-1.48205 3.1059-1.81019 3.01028-2.16169 2.94183-2.5045 2.94509-2.52731 2.94509-2.6941 2.92988-2.69247 2.92445-2.65933 2.83535-2.46755 2.72398-2.39747 2.67508-2.31435 2.61695-2.20624 2.56806-2.08726 2.53112-1.902 2.47353-1.8906 2.48874-1.68632 2.55339-1.5228 2.605-1.42501 2.62184-1.3006 2.62184-1.28647 2.62184-1.30332 2.2095-1.30495 2.17744-1.31364 1.9672-1.37774 1.97643-1.57604 1.93188-1.75967 1.8906-1.94384 1.85583-2.12746 1.81508-2.23721 1.79063-2.32739 1.75206-2.45017 1.71403-2.56263 1.67926-2.77994 1.57876-2.96465 1.5831-2.96465 1.57115-2.68758 1.44783-2.65172 1.43207-2.55285 1.38752-2.44908 1.36362-2.36976 1.37123-2.21004 1.38698-2.02967 1.45815-1.86941 1.49238-1.75858 1.51574-1.48477 1.64884-1.38263 1.62113-1.26203 1.58908-1.31364 1.36253-1.32396 1.26474-1.33102 1.19955-1.32939 1.0784-1.36525 1.02244-1.42555 0.929-1.60918 0.92737-1.70371 0.89749-1.87538 0.843162-2.59142 0.679093-2.59142 0.52426-2.59142 0.512308-2.3551 0.482971-2.33662 0.479712-2.2823 0.471562-2.23232 0.455807-2.18016 0.444399-2.10628 0.429187-2.03456 0.455264-1.96394 0.478625-1.83953 0.519914-1.70914 0.542188-1.57984 0.561746-1.48477 0.576414-1.36416 0.635088-1.33428 0.515024-1.31853 0.452548-1.32994 0.399307-1.32885 0.33683-1.32722 0.226002-1.3408 0.132559-1.36253 0.027707-1.36579 0.0130386-1.38155 0.00380292-1.39622 0.00325965-1.45543 0.00162982-1.51085 0.00923567-1.57169-0.00325965-1.62928-0.0146684-1.71457-0.0168415-1.76456-0.0505245-1.8781-0.0961596-1.98187-0.162982-2.08998-0.220026-2.16115-0.258055-2.3187-0.36671-2.38552-0.266205-2.40834-0.231435-2.41105-0.18743-2.4154-0.146141-2.44148 0.103765-2.55882 0.334114-2.674 0.557943-2.70062 0.609011-2.72724 0.653559-2.76147 0.699194-2.79352 0.742656-2.8071 0.792638-2.84893 0.82958-2.89348 0.868696-2.94727 0.896403-3.00322 0.915418-3.13306 0.959423-3.27595 0.970832-3.41122 0.980067-3.46827 0.98387-3.66765 1.00234-3.66439 0.906725-3.66221 0.845335-3.58344 0.783945-3.54813 0.739397-3.49163 0.666598-3.43078 0.595972-3.38786 0.514481-3.32701 0.396591-3.24661 0.24556-3.17707 0.12767-3.11025 0.015755-3.01517-0.150487-2.90054-0.21568-2.87012-0.233065-2.831-0.237954-2.79841-0.25045-2.76961-0.261315-2.74136-0.275984-2.718-0.295541-2.70333-0.30858-2.6941-0.325965-2.68215-0.340633-2.67291-0.352585-2.64901-0.365081-2.64738-0.380836-2.64466-0.409086-2.69736-0.417235-2.71637-0.422124-2.76581-0.435163-2.74788-0.485144-2.71203-0.501442-2.60229-0.553054-2.43604-0.513938-2.32359-0.490034-2.23232-0.471019-2.14105-0.452005-2.04978-0.432447-1.96937-0.415605-1.88788-0.398764-1.80856-0.375403-1.74065-0.355302-1.67437-0.330311-1.60701-0.306407-1.5467-0.285219-1.4864-0.264575-1.42447-0.248277-1.39785-0.241214-1.3734-0.230892-1.35004-0.218396-1.29625-0.315643-1.32885-0.479168-1.32613-0.587823-1.32287-0.741027-1.51845-0.898033-1.60918-1.00343-1.72598-1.13925-1.84605-1.27181-1.96937-1.40219-2.21276-1.6597-2.46647-1.90689-2.72507-2.14919-2.83209-2.2497-2.94238-2.34695-3.05538-2.44039-3.11242-2.48765-3.16946-2.53383-3.22759-2.57892-3.23737-2.58707-3.35418-2.67997-3.34766-2.68215-3.39329-2.66694-3.40253-2.71148-3.36287-2.72778-3.34331-2.73593-3.30039-2.71366-3.26671-2.71257-3.15751-2.70768-3.04397-2.64738-2.94781-2.59957-2.83481-2.54416-2.72181-2.4882-2.60826-2.43224-2.38769-2.32359-2.18179-2.17527-1.99273-2.01881-1.81182-1.86832-1.63091-1.72707-1.46956-1.55431-1.44511-1.52769-1.41143-1.45924-1.381-1.50813-1.36362-1.53692-1.37992-1.59016-1.37937-1.62167-1.3772-1.71675-1.37448-1.81182-1.37177-1.90689-1.36688-2.09106-1.35982-2.27578-1.36145-2.46049-1.36145-2.50015-1.3446-2.68269-1.36145-2.75223-1.40925-2.94346-1.70697-2.87773-1.84496-2.8636-1.97317-2.85111-2.08889-2.79569-2.22145-2.80982-2.33934-2.82231-2.18342-2.95541-2.15789-2.98475-2.00305-3.16295-1.74554-3.30909-1.53258-3.39818-1.40165-3.45305-1.20335-3.59485-1.05395-3.54269-0.994193-3.52151-0.958336-3.46392-0.945298-3.4047-0.930086-3.33679-0.911072-3.27051-0.903466-3.20043-0.893687-3.11188-0.879562-3.02658-0.876302-2.93749-0.865437-2.63651-0.854028-2.33554-0.851311-2.03456-0.848595-1.74174-0.868696-1.44891-0.868153-1.15609-0.86761-1.01973-0.871413-0.913788-0.777426-0.806763-0.703541-0.722555-0.607381-0.660079-0.534582-0.574785-0.435163-0.459067-0.330854-0.33846-0.226546-0.234151-0.15103-0.158093-0.0738854-0.0548707 2.11105e-16 4.52367e-16" fill="#231F20" fill-rule="evenodd" fill-opacity="1" transform="matrix(1 0 0 -1 531.869 298.203)"/><path d="M0 0C-0.0309667 0.100506-0.0749719 0.200468-0.157006 0.270007-0.343893 0.429187-0.600318 0.490034-0.830667 0.561203-1.09687 0.643237-1.36742 0.711147-1.64015 0.766017-1.69773 0.777426-1.75586 0.785575-1.81399 0.793724-1.86017 0.800244-2.27197 0.830667-2.27795 0.866523-2.24807 0.687786-1.93786 0.49275-1.78357 0.43299-1.56898 0.349326-1.39513 0.2423-1.19901 0.165699-1.1349 0.140708-0.847508 0.0657362-0.815998 0.00923567-0.685613-0.220569-1.28539-0.423754-1.35873-0.605751-1.31527-0.622049-1.26746-0.610641-1.22291-0.600318-1.07894-0.566635-0.939865-0.556857-0.7997-0.506332-0.556313-0.419408-0.30532-0.331398-0.0689959-0.227632 0.0526976-0.174391 0.0363994-0.117891 0 0" fill="#231F20" fill-rule="evenodd" fill-opacity="1" transform="matrix(1 0 0 -1 533.895 300.451)"/><path d="M0 0C0.0108655-0.0021731 0.0222743-0.0043462 0.0325965-0.00108655 0.0592169 0.00760585 0.0961596 0.0597602 0.118977 0.0798614 0.167872 0.123867 0.216223 0.167329 0.261315 0.215137 0.388441 0.349326 0.505245 0.501986 0.616617 0.649213 0.657906 0.704084 0.889341 0.981697 0.693762 0.957793 0.509048 0.935519 0.341176 0.830124 0.203185 0.712776 0.0934432 0.619333-0.0478082 0.506332-0.200468 0.517741-0.241757 0.520457-0.386268 0.504159-0.341176 0.577501-0.267291 0.698108-0.160809 0.80459-0.0809479 0.923567 0.0108655 1.06102 0.0950731 1.2039 0.164612 1.35384 0.262945 1.56463 0.352042 1.77868 0.419408 2.00197 0.486774 2.22525 0.539472 2.45234 0.600318 2.67726 0.632372 2.7946 0.643237 2.91684 0.68018 3.03147 0.697565 3.08417 0.694848 3.18522 0.742656 3.22162 0.801873 3.26671 0.900749 3.25204 0.969745 3.26508 1.06536 3.28301 1.16261 3.30202 1.2604 3.31778 1.47445 3.35309 1.68741 3.3971 1.89494 3.46283 2.01772 3.50195 2.1329 3.5465 2.25731 3.57529 2.36161 3.59919 2.47788 3.68938 2.45017 3.81107 2.42952 3.90451 2.31978 3.94417 2.25622 4.00448 2.153 4.10281 2.16604 4.10716 2.07477 4.03381 2.04869 4.01317 2.0514 3.97949 2.02152 3.94852 1.99056 3.91701 2.00414 3.95613 1.94655 3.92733 1.73794 3.82248 1.51628 3.76218 1.28702 3.71111 1.18217 3.68775 1.0257 3.60897 0.919221 3.65461 0.789921 3.71002 0.819801 3.98438 0.840989 4.09792 0.86109 4.20712 0.988217 4.34511 0.892057 4.45105 0.879562 4.46463 0.85946 4.46843 0.840446 4.47115 0.748632 4.48365 0.656276 4.48962 0.563376 4.48962 0.535126 4.48908 0.411802 4.50809 0.388441 4.49288 0.34009 4.46083 0.37323 4.24623 0.375403 4.20006 0.380292 4.07999 0.388441 3.95939 0.398764 3.83986 0.404196 3.77685 0.440052 3.66058 0.392244 3.6068 0.336287 3.54378 0.154833 3.54432 0.0760584 3.53129-0.173848 3.48891-0.4281 3.46175-0.68181 3.48076-0.919221 3.49815-0.775253 3.24226-0.662252 3.16675-0.563376 3.10101-0.437879 3.09069-0.322705 3.09286-0.203185 3.09558-0.0885538 3.11785 0.0282503 3.13143 0.147771 3.14502 0.331941 3.21184 0.34009 3.05157 0.347696 2.89402 0.279243 2.75495 0.249906 2.60392 0.200468 2.34858 0.145598 2.11117 0.0581304 1.9107-0.0738854 1.60918-0.210247 1.31635-0.390071 1.04635-0.418865 1.00288-0.49275 0.943125-0.528606 0.907812-0.588366 0.849138-0.575328 0.815998-0.654646 0.776883-0.706257 0.751349-0.780142 0.788292-0.843705 0.754065-0.873042 0.737767-0.888254 0.711147-0.913788 0.691589-0.905639 0.666055-0.874129 0.657906-0.848052 0.6503-0.755152 0.622049-0.685069 0.547621-0.619876 0.475909-0.442226 0.282503-0.272181 0.055414 0 0" fill="#231F20" fill-rule="evenodd" fill-opacity="1" transform="matrix(1 0 0 -1 537.771 298.831)"/><path d="M0 0C-0.0043462 0.0152117-0.0135819 0.027707-0.0228175 0.0402023-0.108112 0.151574-0.222743 0.2787-0.33846 0.359105-0.445485 0.434076-0.5574 0.377576-0.666055 0.33846-0.901293 0.254253-1.1349 0.21894-1.37448 0.153747-1.64558 0.0798614-1.91667 0.00597602-2.18722-0.0679093-2.40019-0.125496-2.61804-0.162982-2.83263-0.214593-2.93368-0.238498-3.10916-0.271094-3.18576-0.342263-3.34549-0.490034-3.10481-0.506875-2.95922-0.537299-2.67889-0.595429-2.42626-0.562289-2.14268-0.508505-1.95579-0.473192-0.73668-0.0907269-0.695935-0.314013-0.688872-0.356388-0.711147-0.416148-0.712776-0.45961-0.716579-0.541102-0.712233-0.623136-0.714406-0.704627-0.718209-0.862177-0.728531-1.01918-0.743743-1.17619-0.774166-1.49075-0.824148-1.80259-0.884994-2.1128-0.911615-2.24916-0.940408-2.38498-0.970832-2.52079-1.03005-2.787-1.09524-3.05429-1.21205-3.30094-1.25388-3.39003-1.3044-3.47478-1.37829-3.54106-1.46358-3.61658-1.56789-3.61115-1.67763-3.61712-1.78357-3.6231-1.88951-3.62744-1.99599-3.62581-2.06227-3.62527-2.12855-3.62201-2.19483-3.61549-2.25459-3.60897-2.30348-3.59593-2.36161-3.60789-2.3828-3.61223-2.43659-3.61006-2.44528-3.63288-2.45506-3.65732-2.41703-3.68395-2.4029-3.69698-2.3024-3.78499-2.17907-3.84312-2.0802-3.93331-1.89386-4.10335-1.71892-4.29187-1.5467-4.45648-1.49455-4.50592-1.45652-4.59665-1.3897-4.6287-1.18054-4.72866-0.874672-4.1441-0.799157-4.00719-0.350955-3.19445-0.243387-2.17201-0.130386-1.27398-0.0804046-0.874129-0.089097-0.459067-0.00380292-0.0657362 0.00108655-0.0440052 0.00597602-0.0211877 0 0" fill="#231F20" fill-rule="evenodd" fill-opacity="1" transform="matrix(1 0 0 -1 542.235 296.797)"/><path d="M0 0C0.209704 0.128756 0.450375 0.194492 0.683439 0.267291 0.720925 0.2787 0.811109 0.304234 0.791551 0.361821 0.776339 0.407456 0.672574 0.411802 0.632915 0.417778 0.511221 0.437336 0.399307 0.443312 0.27707 0.412889 0.204271 0.394961 0.141795 0.342806 0.0700824 0.318359-0.0239041 0.286849-0.177108 0.191776-0.27544 0.231978-0.353672 0.264575-0.288479 0.304777-0.254796 0.336287-0.198295 0.390614-0.132559 0.441682-0.0896403 0.508505 0 0.6503 0.130929 0.800244 0.198295 0.935519 0.314013 1.16804-0.0565006 1.22889-0.244474 1.22889-0.269464 1.2441-0.24393 1.15826-0.244474 1.10067-0.24556 1.00343-0.314556 0.928456-0.350955 0.833927-0.423211 0.648127-0.501442 0.526976-0.596516 0.364537-0.639978 0.290652-0.703541 0.196122-0.756782 0.108655-0.881735-0.0972462-1.18868-0.18743-1.40925-0.234151-1.50433-0.254796-1.62059-0.24882-1.70425-0.303691-1.83138-0.386812-1.67981-0.491664-1.59723-0.535669-1.49781-0.588366-1.38426-0.61553-1.27126-0.611727-1.11317-0.606295-0.982784-0.522087-0.871413-0.418865-0.780686-0.334657-0.639434-0.317272-0.591083-0.456894-0.541645-0.600862-0.575328-0.755152-0.575328-0.883908-0.650843-0.858374-0.792638-0.965399-0.862177-0.995279-0.973548-1.04254-1.08275-1.09524-1.19629-1.13544-1.33102-1.18325-1.45217-1.25279-1.5831-1.30712-1.68415-1.34949-1.60972-1.40491-1.54236-1.43859-1.39622-1.51356-1.18597-1.47608-1.03439-1.43316-0.906725-1.3973-0.789378-1.33102-0.661165-1.29951-0.643237-1.29517-0.624223-1.29136-0.605751-1.29517-0.529693-1.31038-0.578044-1.43099-0.580761-1.48097-0.584563-1.56572-0.589453-1.69176-0.591083-1.75858-0.599232-2.0601-0.644324-2.34803-0.695392-2.6414-0.716579-2.76309-0.74483-2.87718-0.77471-2.99616-0.807306-3.12546-0.670401-3.12492-0.588366-3.07711-0.477538-3.01246-0.440052-2.8234-0.396591-2.70931-0.3352-2.5485-0.280873-2.38498-0.235238-2.21873-0.148314-1.90363-0.089097-1.57387-0.106482-1.24573-0.113544-1.11371-0.15592-0.993649 0.00543275-0.949101 0.114088-0.919221 0.21894-0.875215 0.325965-0.839359 0.352042-0.830124 0.378119-0.821975 0.40474-0.815998 0.43462-0.809479 0.46613-0.80622 0.49275-0.791008 0.660079-0.697565 0.372686-0.523717 0.289022-0.510135 0.160809-0.48949 0.0918134-0.567722-0.00706257-0.628025-0.129843-0.702454-0.123867-0.698108-0.142338-0.574241-0.173305-0.371057-0.201012-0.123867 0 0" fill="#231F20" fill-rule="evenodd" fill-opacity="1" transform="matrix(1 0 0 -1 539.055 298.737)"/><path d="M0 0C-0.0266205 0.168958-0.0325965 0.340633-0.0331398 0.511221-0.033683 0.634545-0.0304234 0.758411-0.0287936 0.881735-0.027707 0.970832-0.00488947 1.07514-0.043462 1.15935-0.0608468 1.19738-0.101592 1.22943-0.133102 1.25551-0.177651 1.29245-0.206988 1.34352-0.245017 1.38589-0.2787 1.42392-0.318359 1.45815-0.349869 1.49835-0.363994 1.51574-0.386268 1.53638-0.410172 1.5391-0.421038 1.54018-0.432447 1.53747-0.443312 1.52932-0.4645 1.51411-0.46124 1.48151-0.455264 1.45598-0.442226 1.40056-0.452548 1.33972-0.453091 1.28321-0.454721 1.16913-0.459067 1.04798-0.478625 0.935519-0.510135 0.754609-0.555227 0.576958-0.599232 0.399307-0.610097 0.356388-0.62042 0.313469-0.631285 0.270551-0.696478 0.00108655-0.68018-0.278157-0.537842-0.520457-0.448202-0.673661-0.274354-0.948014-0.083121-0.979524 0.251536-1.03548 0.139078-0.509048 0.0809479-0.335744 0.0445485-0.226546 0.0179281-0.114088 0 0" fill="#231F20" fill-rule="evenodd" fill-opacity="1" transform="matrix(1 0 0 -1 536.45 299.507)"/><path d="M0 0C0.21731 0.0923567 0.435163 0.196122 0.660079 0.270551 0.751892 0.300974 0.845879 0.326508 0.942582 0.335744 1.01375 0.342263 1.12784 0.31021 1.17945 0.357475 1.34732 0.511221 1.05341 0.937692 0.953447 1.05776 0.817628 1.21965 0.726902 1.16695 0.569352 1.06753 0.441682 0.986587 0.321075 0.894773 0.185257 0.826864-0.0146684 0.727445-0.221113 0.647583-0.429187 0.565006-0.575328 0.506332-0.697021 0.472106-0.849138 0.433533-0.973005 0.402023-1.09904 0.376489-1.22454 0.350955-1.44565 0.306407-1.53203 0.256969-1.55811 0.512308-1.59125 0.837186-1.5956 1.16369-1.59723 1.4902-1.59831 1.6195-1.59886 1.7488-1.60103 1.87756-1.60646 2.197-1.63308 2.51753-1.632 2.83698-1.63145 2.89457-1.61353 2.99453-1.60103 3.05049-1.56137 3.22868-1.4902 3.24498-1.67546 3.3406-1.8178 3.41339-1.90255 3.3683-2.04 3.31398-2.06227 3.3042-2.04978 2.81362-2.0514 2.76255-2.06336 2.4355-2.01066 2.11062-2.04108 1.78792-2.0764 1.41577-2.05195 1.03602-2.06825 0.662795-2.07368 0.537299-2.0275 0.328138-2.11497 0.221656-2.19048 0.129843-2.36542 0.171132-2.4681 0.160266-2.64086 0.141795-2.81525 0.135275-2.98964 0.140708-3.16457 0.146141-3.33734 0.106482-3.5139 0.105395-3.53998 0.105395-3.56497 0.105939-3.58996 0.108112L-3.56931 0.0347696C-3.38786-0.0885538-3.18033-0.196665-2.9728-0.269464-2.75766-0.344979-2.53112-0.404196-2.30294-0.438423-2.24101-0.447658-2.14322-0.440052-2.11171-0.506875-2.07477-0.585107-2.1329-0.670944-2.14865-0.746459-2.19537-0.968659-2.23992-1.1914-2.30566-1.40925-2.36216-1.59777-2.42572-1.78411-2.49689-1.9672-2.56371-2.13996-2.69464-2.29153-2.79895-2.44528-3.04125-2.80438-3.36993-3.07059-3.7964-3.16892-3.83715-3.1787-3.88115-3.19011-3.9056-3.22325-3.93114-3.25747-3.92788-3.30746-3.90669-3.3444-3.8855-3.38134-3.84856-3.40742-3.80999-3.42589-3.73719-3.46175-3.65515-3.47478-3.57475-3.48782-3.15045-3.55573-2.62999-3.66493-2.27306-3.35635-2.19972-3.29333-2.04271-3.13632-2.01935-3.04342-1.86398-2.42463-1.75641-1.79281-1.69882-1.15718-1.68469-0.997995-1.67437-0.838816-1.66459-0.679637-1.66188-0.628025-1.67546-0.536212-1.62928-0.500356-1.57332-0.456351-1.45435-0.484601-1.39187-0.484058-1.15011-0.483514-0.909442-0.426471-0.692132-0.320532-0.591083-0.271094-0.509592-0.210247-0.404196-0.172218-0.266748-0.12278-0.133646-0.0570438 0 0" fill="#231F20" fill-rule="evenodd" fill-opacity="1" transform="matrix(1 0 0 -1 548.648 297.648)"/><path d="M0 0C-0.0575871 0.0863807-0.117347 0.165699-0.170045 0.234695-0.433533 0.578044-0.799157 0.851311-1.21694 0.973005-1.25877 0.984957-1.53964 1.01918-1.55214 1.04363-1.55214 1.04363-1.43533 0.977351-1.51085 0.978438-1.45217 0.871956-1.36634 0.779056-1.3006 0.676377-1.22454 0.5574-1.14903 0.438423-1.07786 0.315643-0.9855 0.157006-0.89586-0.0190146-0.839359-0.193949-0.788292-0.352585-0.767647-0.517741-0.684526-0.668228-0.592713-0.835556-0.397134-0.953447-0.211877-0.976265-0.0782315-0.992019 0.229805-1.10611 0.285762-0.900749 0.315643-0.789378 0.265661-0.58565 0.235781-0.476452 0.18906-0.304777 0.0977894-0.146684 0 0" fill="#231F20" fill-rule="evenodd" fill-opacity="1" transform="matrix(1 0 0 -1 549.656 300.324)"/><path d="M0 0C0.071169 0.0630199 0.0282503 0.164612-0.0374859 0.207531-0.110828 0.254796-0.197209 0.272724-0.281416 0.287392-0.340633 0.297171-0.400393 0.27707-0.438966 0.228175-0.45961 0.202098-0.4645 0.174934-0.49275 0.157006-0.518284 0.141795-0.566092 0.145598-0.575871 0.110828-0.58239 0.0880105-0.562289 0.0662795-0.543275 0.0532409-0.475909 0.00706257-0.408543 0.011952-0.331941 0-0.27381-0.00923567-0.21405-0.0135819-0.155377-0.0108655-0.111371-0.00923567-0.0347696-0.0309667 0 0" fill="#231F20" fill-rule="evenodd" fill-opacity="1" transform="matrix(1 0 0 -1 544.922 297.675)"/></g></g></g></g></g></svg>