<?xml version="1.0" encoding="UTF-8"?>
<svg id="_图层_2" data-name="图层 2" xmlns="http://www.w3.org/2000/svg" viewBox="0 0 120 120">
  <defs>
    <style>
      .cls-1 {
        fill: #00baff;
      }

      .cls-2 {
        fill: #fff;
      }

      .cls-3 {
        fill: #a7ddf4;
      }

      .cls-4 {
        fill: #0052d9;
      }
    </style>
  </defs>
  <g id="_图层_1-2" data-name="图层 1">
    <g>
      <circle class="cls-3" cx="60" cy="60" r="60"/>
      <path class="cls-4" d="M61.54.04c15.85.8,28.46,13.91,28.46,29.96s-13.43,30-30,30-30,13.43-30,30,13.43,30,30,30c.52,0,1.03-.01,1.54-.04,32.42-.82,58.46-27.34,58.46-59.96S93.97.86,61.54.04Z"/>
      <path class="cls-1" d="M60.58.03c12.62.31,22.76,10.61,22.76,23.3,0,10.71-7.23,20-17.8,22.68,0,0,.1-.02.23-.04-9.05,1.93-15.84,9.96-15.84,19.59,0,11.07,8.97,20.04,20.04,20.04,2.87,0,6.79-.68,9.25-1.76,15.96-6.45,26.04-22.02,26.04-40.3C105.25,19.49,85.77,0,61.72,0c-.39,0-.77.02-1.15.03ZM66.92,45.77s.04,0,.06,0c-.02,0-.04,0-.06,0Z"/>
      <g>
        <path class="cls-4" d="M15.6,75.6c0-12.12,4.87-23.11,12.74-31.12v-.03s0,0,0,0c2.05-2.24,3.31-5.21,3.31-8.48,0-6.94-5.63-12.57-12.56-12.57-4.83,0-9.02,2.73-11.13,6.74,0,0,0,0,0,0C2.91,38.93,0,49.12,0,60,0,92.37,25.64,118.74,57.71,119.94c-23.46-1.19-42.11-20.59-42.11-44.34Z"/>
        <path class="cls-4" d="M57.71,119.94c.76.04,1.52.06,2.29.06-.77,0-1.53-.03-2.29-.06Z"/>
      </g>
      <path class="cls-2" d="M60.58.03h0c12.62.31,22.76,10.61,22.76,23.3,0,10.71-7.35,20.01-17.8,22.68-7.96,1.84-13.83,8.12-15.22,15.59,0,0,4.3-1.6,9.62-1.6,0,0-.02,0-.04,0,.04,0,.07,0,.11,0,16.57,0,30-13.43,30-30S76.88.34,60.58.03Z"/>
    </g>
  </g>
</svg>